<?xml version="1.0" encoding="UTF-8"?>
<svg id="Capa_1" xmlns="http://www.w3.org/2000/svg" version="1.1" viewBox="0 0 294.64 148.21">
  <!-- Generator: Adobe Illustrator 29.6.1, SVG Export Plug-In . SVG Version: 2.1.1 Build 9)  -->
  <path d="M81.11,45.29c-4.54,6.44-11.22,11.85-19.73,11.85s-14.5-6.1-14.5-16.85c0-15.13,13.69-29.51,28.88-29.51,6.1,0,9.49,2.3,9.49,5.98,0,3.34-2.82,6.9-6.39,9.43-.34.23-.75,0-.29-.35,1.27-1.04,3.68-4.66,3.68-8.28,0-3.91-2.42-6.27-6.73-6.27-11.39,0-23.36,18.52-23.36,33.54,0,7.94,3.74,11.62,9.38,11.62,7.36,0,14.84-5.12,19.21-11.5.17-.29.52.06.35.34Z"/>
  <path d="M78.93,48.92c0-9.26,8.92-17.26,16.4-17.26,4.77,0,7.25,3.22,7.25,7.71,0,5.41-2.82,10.18-6.44,13.4.52.4,1.15.69,2.19.69,2.88,0,7.13-1.9,11.1-8.51.17-.29.52.06.34.34-3.85,6.5-8.17,8.8-11.96,8.8-.98,0-2.07-.06-2.93-.23-2.7,2.01-5.69,3.22-8.23,3.22-5.23,0-7.71-3.34-7.71-8.17ZM92.56,52.83c-.12-.17-.17-.35-.17-.52,0-1.15,1.32-2.36,2.07-2.36,2.13-3.85,3.62-8.74,3.62-12.77,0-3.68-1.09-5.06-3.22-5.06-5.69,0-11.45,10.07-11.45,18.75,0,4.37,1.15,5.75,3.51,5.75,1.9,0,3.85-1.5,5.64-3.8Z"/>
  <path d="M126.85,56.91c-2.76,0-4.37-1.44-4.37-4.77,0-5.18,5.58-13.06,5.58-17.03,0-1.73-.86-2.36-2.36-2.36-1.61,0-5.81,1.73-9.32,6.73-1.5,2.13-2.76,5.35-5.7,13.35-.86,2.3-2.13,3.62-4.6,3.62-.52,0-.75-.17-.75-.46.06-.35.29-.58.98-2.42l4.6-12.83c1.32-3.57,1.78-4.89,1.78-5.46,0-.81-.46-1.09-1.44-1.09-.17,0-.29-.06-.29-.23s.12-.23.35-.29c2.36-.58,4.03-1.5,4.83-1.5s1.27.52,1.27,1.5c0,1.38-.63,2.88-1.44,5.29l.12.12c3.8-5.06,8.34-7.42,11.56-7.42,2.42,0,4.26,1.38,4.26,4.37,0,3.91-5.35,11.5-5.35,17.14,0,1.67.75,2.53,2.01,2.53,2.01,0,6.1-4.08,10.01-10.76.17-.29.52.06.35.34-3.8,6.56-7.88,11.62-12.08,11.62Z"/>
  <path d="M146.87,33.62h.69c7.82,0,10.93-1.21,14.67-1.21.4,0,.58.12.58.35,0,.4-1.21,1.61-2.3,4.72l-4.2,11.79c-.69,1.96-1.09,3.34-1.09,4.14,0,1.5.81,2.3,2.3,2.3,2.13,0,6.56-4.08,10.53-10.76.17-.29.52.06.34.34-3.85,6.62-8.51,11.62-12.71,11.62-2.7,0-4.26-1.5-4.26-4.08,0-1.96,1.09-4.54,2.24-7.77l3.16-8.92c.52-1.38,1.38-2.47,2.59-3.11-2.76.4-6.21,1.04-11.68,1.04h-1.04l-7.13,18.93c-3.68,9.66-9.66,13.52-11.04,13.52-.17,0-.23-.06-.23-.17,0-.17.17-.23.58-.58.92-.92,3.34-3.11,6.79-12.71l6.79-18.98h-3.22c-.17,0-.29-.12-.29-.23s.17-.23.35-.23h3.34l.92-2.53c2.36-6.5,3.51-8.23,6.27-12.14,2.53-3.51,7.42-5.58,11.16-5.58,3.39,0,6.56,1.55,6.56,4.26s-3.39,4.66-4.31,4.66c-.29,0-.35-.11-.35-.23,0-.46,1.67-2.42,1.67-5.12,0-2.07-1.15-3.05-3.74-3.05-3.62,0-6.62,2.65-9.03,7.48-1.5,2.99-2.76,6.62-4.49,11.22l-.4,1.04Z"/>
  <path d="M169.88,34.19c-.17,0-.29-.06-.29-.23s.12-.23.35-.29c2.36-.58,4.03-1.5,4.83-1.5s1.27.52,1.27,1.5c0,1.21-.52,2.47-1.15,4.49l.12.06c2.93-4.43,6.27-6.56,8.86-6.56,2.07,0,3.68,1.09,3.68,3.68,0,3.28-4.08,6.1-5,6.1-.17,0-.23-.06-.23-.17,0-.46,1.73-2.42,1.73-5.81,0-1.78-.63-2.65-1.73-2.65-1.38,0-4.08,1.44-6.96,5.69-1.55,2.3-2.93,5.81-6.04,14.32-.86,2.3-2.07,3.62-4.6,3.62-.52,0-.75-.17-.75-.46.06-.35.29-.58.98-2.42l4.6-12.83c1.27-3.57,1.78-4.89,1.78-5.46,0-.81-.46-1.09-1.44-1.09Z"/>
  <path d="M191.4,34.19c-.17,0-.29-.12-.29-.23,0-.17.12-.23.35-.29,2.36-.58,4.03-1.5,4.83-1.5.75,0,1.27.52,1.21,1.5-.06,1.09-.52,2.7-1.32,5.12l.23.06c2.47-3.74,5.46-7.19,9.66-7.19,2.93,0,4.26,2.36,4.08,5.29-.06,1.27-.46,2.53-.46,2.53l.29.06c2.99-5,6.67-7.88,9.84-7.88,2.47,0,4.31,1.38,4.31,4.37,0,3.91-5.35,11.5-5.35,17.14,0,1.67.81,2.53,2.01,2.53,2.01,0,6.1-4.08,10.01-10.76.17-.29.52.06.34.34-3.8,6.56-7.88,11.62-12.08,11.62-2.76,0-4.37-1.44-4.37-4.77,0-5.18,5.58-13.06,5.58-17.03,0-1.73-.81-2.42-2.13-2.42-1.84,0-5.12,2.47-7.82,7.25-.81,1.38-1.5,2.59-5,13.12-.69,2.01-2.07,3.39-4.54,3.39-.52,0-.75-.17-.75-.46,0-.35.23-.58.86-2.42l4.49-13.4c.81-2.24,1.21-3.74,1.21-5.06,0-1.73-.8-2.42-2.42-2.42-2.19,0-5.46,3.16-7.94,7.31-1.32,2.13-2.53,4.95-5.41,12.83-.86,2.3-2.07,3.62-4.6,3.62-.52,0-.75-.17-.75-.46,0-.35.23-.58.92-2.42l4.66-12.83c1.32-3.68,1.78-4.89,1.78-5.58,0-.75-.46-.98-1.44-.98Z"/>
  <path d="M250.6,44.55c-2.13,5.58-2.47,7.54-2.47,8.92s.75,2.42,2.19,2.42c2.42,0,6.62-4.2,10.64-10.93.17-.29.52.06.34.34-3.85,6.56-8.17,11.62-12.14,11.62-3.16,0-4.77-1.9-4.6-5.29.06-1.27.34-2.59.34-2.59l-.17-.11c-2.59,4.2-6.38,8.17-9.72,8.17s-6.33-2.19-6.33-7.59c0-9.2,9.78-17.83,16.91-17.83,2.93,0,4.14,1.84,3.97,4.49h.12c1.32-2.65,4.6-3.91,6.21-3.91.35,0,.46.12.46.29s-.06.23-.29.46c-.98.92-2.53,3.85-5.46,11.56ZM245.99,32.41c-5,0-12.83,10.01-12.83,19.16,0,3.74.98,4.77,2.59,4.77,1.9,0,6.39-3.45,9.03-8.69,3.22-6.16,4.26-10.41,4.26-12.14,0-2.01-1.04-3.11-3.05-3.11Z"/>
  <path d="M25.86,114.33c-3.85,6.56-8.46,11.62-13.17,11.62-2.53,0-4.6-1.84-4.6-4.89,0-1.55.52-3.34,1.84-7.08l4.26-12.08h-2.65c-.17,0-.29-.06-.29-.23s.12-.23.29-.23h2.82l2.13-5.92c.35-.98.58-1.15,1.44-1.32,1.32-.17,2.88-1.5,3.85-2.53.35-.35.58-.23.4.23-1.32,3.62-2.53,6.79-3.51,9.55h4.95c.17,0,.29.06.29.23s-.12.23-.29.23h-5.12c-2.24,6.04-3.74,10.18-4.77,13.12-1.27,3.51-1.73,5.46-1.73,6.79,0,1.78,1.04,2.93,2.7,2.93,2.36,0,6.85-4.08,10.81-10.76.17-.29.52.06.34.34Z"/>
  <path d="M33.62,102.6c0,2.93-6.04,14.27-6.04,18.98,0,2.59.92,3.68,2.76,3.68,2.7,0,7.36-4.54,9.61-9.43.81-1.84,4.14-10.64,4.14-10.64.98-2.3,3.16-3.74,5.81-3.74.4,0,.58.12.58.4-.06.35-.98.63-2.47,4.66l-3.68,9.89c-1.21,3.22-1.61,5.06-1.61,6.04,0,1.55.81,2.36,2.07,2.36,2.24,0,6.16-4.14,10.12-10.81.17-.29.52.06.35.34-3.8,6.56-8.17,11.62-12.2,11.62-2.76,0-4.14-1.73-4.14-4.14,0-1.15.52-2.93,1.09-4.72l-.12-.06c-2.19,4.14-6.5,9.09-10.76,9.09-3.16,0-5.52-1.84-5.52-5.29,0-4.2,5.18-14.67,5.18-16.68,0-.69-.46-.92-1.44-.92-.17,0-.29-.06-.29-.23s.12-.23.35-.29c2.36-.58,4.08-1.5,4.89-1.5.75,0,1.32.46,1.32,1.38Z"/>
  <path d="M84.77,113.58c-2.13,5.58-2.47,7.54-2.47,8.92s.75,2.42,2.19,2.42c2.42,0,6.62-4.2,10.64-10.93.17-.29.52.06.35.34-3.85,6.56-8.17,11.62-12.14,11.62-3.16,0-4.77-1.9-4.6-5.29.06-1.27.35-2.59.35-2.59l-.17-.11c-2.59,4.2-6.39,8.17-9.72,8.17s-6.33-2.19-6.33-7.59c0-9.2,9.78-17.83,16.91-17.83,2.93,0,4.14,1.84,3.97,4.49h.11c1.32-2.65,4.6-3.91,6.21-3.91.35,0,.46.12.46.29s-.06.23-.29.46c-.98.92-2.53,3.85-5.46,11.56ZM80.16,101.45c-5,0-12.83,10.01-12.83,19.16,0,3.74.98,4.77,2.59,4.77,1.9,0,6.39-3.45,9.03-8.69,3.22-6.16,4.26-10.41,4.26-12.14,0-2.01-1.04-3.11-3.05-3.11Z"/>
  <path d="M95.12,113.99c.46-.75.86-1.5,1.32-2.3-.92-.92-1.5-2.01-1.44-3.39.17-3.62,4.77-7.59,10.35-7.59,3.16,0,5.35.92,5.35,3.28,0,2.13-2.99,4.03-3.62,4.03-.23,0-.29-.12-.29-.23,0-.4,1.04-1.9,1.04-4.08,0-1.84-.69-2.53-2.82-2.53-3.51,0-6.16,2.07-6.27,4.14-.23,4.72,9.26,5.06,8.92,11.91-.29,5.93-6.1,8.92-10.35,8.92-4.54,0-7.31-1.84-7.31-4.77,0-2.24,1.32-3.91,3.45-3.91,1.15,0,1.73.52,1.73,1.55,0,2.01-2.93,1.61-2.93,3.8,0,1.61,1.38,2.88,5.18,2.88,4.08,0,6.33-3.11,6.44-5.58.23-3.85-4.43-5.47-7.08-8-.4.75-.86,1.5-1.32,2.24-.17.29-.52-.06-.35-.34Z"/>
  <path d="M117.04,125.95c-2.7,0-4.26-1.5-4.26-4.08,0-1.96,1.09-4.54,2.24-7.77l3.16-8.92c.86-2.36,2.76-3.74,5.41-3.74.4,0,.58.12.58.35,0,.4-1.21,1.61-2.3,4.72l-4.2,11.79c-.69,1.96-1.09,3.34-1.09,4.14,0,1.5.81,2.3,2.3,2.3,2.13,0,6.56-4.08,10.53-10.76.17-.29.52.06.35.34-3.85,6.62-8.51,11.62-12.71,11.62ZM126.65,89.88c1.09,0,2.13,1.27,2.13,2.65s-2.3,3.22-3.74,3.22c-1.04,0-2.13-1.27-2.13-2.65s2.3-3.22,3.74-3.22Z"/>
  <path d="M129.41,113.99c.46-.75.86-1.5,1.32-2.3-.92-.92-1.5-2.01-1.44-3.39.17-3.62,4.77-7.59,10.35-7.59,3.16,0,5.35.92,5.35,3.28,0,2.13-2.99,4.03-3.62,4.03-.23,0-.29-.12-.29-.23,0-.4,1.04-1.9,1.04-4.08,0-1.84-.69-2.53-2.82-2.53-3.51,0-6.16,2.07-6.27,4.14-.23,4.72,9.26,5.06,8.92,11.91-.29,5.93-6.1,8.92-10.36,8.92-4.54,0-7.31-1.84-7.31-4.77,0-2.24,1.32-3.91,3.45-3.91,1.15,0,1.73.52,1.73,1.55,0,2.01-2.93,1.61-2.93,3.8,0,1.61,1.38,2.88,5.18,2.88,4.08,0,6.33-3.11,6.44-5.58.23-3.85-4.43-5.47-7.08-8-.4.75-.86,1.5-1.32,2.24-.17.29-.52-.06-.34-.34Z"/>
  <path d="M165.25,114.33c-3.85,6.56-8.46,11.62-13.17,11.62-2.53,0-4.6-1.84-4.6-4.89,0-1.55.52-3.34,1.84-7.08l4.26-12.08h-2.65c-.17,0-.29-.06-.29-.23s.12-.23.29-.23h2.82l2.13-5.92c.34-.98.58-1.15,1.44-1.32,1.32-.17,2.88-1.5,3.85-2.53.34-.35.58-.23.4.23-1.32,3.62-2.53,6.79-3.51,9.55h4.95c.17,0,.29.06.29.23s-.11.23-.29.23h-5.12c-2.24,6.04-3.74,10.18-4.77,13.12-1.27,3.51-1.73,5.46-1.73,6.79,0,1.78,1.04,2.93,2.7,2.93,2.36,0,6.85-4.08,10.82-10.76.17-.29.52.06.34.34Z"/>
  <path d="M172.1,126.13c-4.49,0-9.03-2.24-9.03-8.28,0-8.34,8.69-17.14,15.47-17.14,2.76,0,5.06,1.32,5.06,4.26,0,3.51-6.44,9.61-15.19,9.61-.4,1.67-.63,3.34-.63,4.83,0,4.49,1.84,6.1,4.72,6.1,4.37,0,11.33-4.89,15.3-11.5.17-.29.52.06.34.34-3.8,6.56-10.58,11.79-16.05,11.79ZM168.53,114.1c8.4,0,12.14-7.36,12.14-10.24,0-1.96-.86-2.7-2.47-2.7-4.03,0-8.05,6.62-9.66,12.94Z"/>
  <path d="M205.23,125.95c-2.76,0-4.37-1.44-4.37-4.77,0-5.18,5.58-13.06,5.58-17.03,0-1.73-.86-2.36-2.36-2.36-1.61,0-5.81,1.73-9.32,6.73-1.5,2.13-2.76,5.35-5.7,13.35-.86,2.3-2.13,3.62-4.6,3.62-.52,0-.75-.17-.75-.46.06-.35.29-.58.98-2.42l4.6-12.83c1.32-3.57,1.78-4.89,1.78-5.46,0-.81-.46-1.09-1.44-1.09-.17,0-.29-.06-.29-.23s.12-.23.35-.29c2.36-.58,4.03-1.5,4.83-1.5s1.27.52,1.27,1.5c0,1.38-.63,2.88-1.44,5.29l.12.12c3.8-5.06,8.34-7.42,11.56-7.42,2.42,0,4.26,1.38,4.26,4.37,0,3.91-5.35,11.5-5.35,17.14,0,1.67.75,2.53,2.01,2.53,2.01,0,6.1-4.08,10.01-10.76.17-.29.52.06.35.34-3.8,6.56-7.88,11.62-12.08,11.62Z"/>
  <path d="M223.99,126.13c-5.06,0-8.86-2.65-8.86-8.23,0-8.51,8.74-17.2,15.82-17.2,3.11,0,5.35.92,5.35,3.28,0,2.88-3.62,5.35-4.49,5.35-.12,0-.17-.12-.17-.17,0-.52,1.44-2.3,1.44-5.23,0-2.01-.63-2.65-2.36-2.65-5.98,0-10.99,11.56-10.99,18.35,0,4.54,2.47,5.87,5.12,5.87,4.49,0,11.62-4.89,15.59-11.5.17-.29.52.06.34.34-3.8,6.56-10.76,11.79-16.8,11.79Z"/>
  <path d="M242.34,125.95c-2.7,0-4.26-1.5-4.26-4.08,0-1.96,1.09-4.54,2.24-7.77l3.16-8.92c.86-2.36,2.76-3.74,5.41-3.74.4,0,.58.12.58.35,0,.4-1.21,1.61-2.3,4.72l-4.2,11.79c-.69,1.96-1.09,3.34-1.09,4.14,0,1.5.8,2.3,2.3,2.3,2.13,0,6.56-4.08,10.53-10.76.17-.29.52.06.34.34-3.85,6.62-8.51,11.62-12.71,11.62ZM251.95,89.88c1.09,0,2.13,1.27,2.13,2.65s-2.3,3.22-3.74,3.22c-1.04,0-2.13-1.27-2.13-2.65s2.3-3.22,3.74-3.22Z"/>
  <path d="M274.5,113.58c-2.13,5.58-2.47,7.54-2.47,8.92s.75,2.42,2.19,2.42c2.42,0,6.62-4.2,10.64-10.93.17-.29.52.06.34.34-3.85,6.56-8.17,11.62-12.14,11.62-3.16,0-4.77-1.9-4.6-5.29.06-1.27.34-2.59.34-2.59l-.17-.11c-2.59,4.2-6.38,8.17-9.72,8.17s-6.33-2.19-6.33-7.59c0-9.2,9.78-17.83,16.91-17.83,2.93,0,4.14,1.84,3.97,4.49h.12c1.32-2.65,4.6-3.91,6.21-3.91.35,0,.46.12.46.29s-.06.23-.29.46c-.98.92-2.53,3.85-5.46,11.56ZM269.9,101.45c-5,0-12.83,10.01-12.83,19.16,0,3.74.98,4.77,2.59,4.77,1.9,0,6.39-3.45,9.03-8.69,3.22-6.16,4.26-10.41,4.26-12.14,0-2.01-1.04-3.11-3.05-3.11Z"/>
</svg>