<?xml version="1.0" encoding="UTF-8"?>
<svg id="Capa_1" xmlns="http://www.w3.org/2000/svg" version="1.1" viewBox="0 0 302.38 77.98">
  <!-- Generator: Adobe Illustrator 29.6.1, SVG Export Plug-In . SVG Version: 2.1.1 Build 9)  -->
  <path d="M7.34,15.02c0,3.2,1.77,4.5,3.29,4.97.22.06.13.29-.06.22-1.77-.54-3.55-1.87-3.55-5.16,0-4.43,4.24-9.85,14.12-9.85,7.73,0,12.54,3.67,12.54,9.97,0,8.04-6.65,15.86-15.29,15.86-2.69,0-4.91-.89-6.11-2.44-1.52,1.68-3.42,2.53-6.14,2.53-.19,0-.28-.03-.28-.16s.06-.19.22-.19c3.86,0,5.32-3.99,7.95-12.38,2.53-8.07,3.86-10.73,8.96-12.85-.6-.06-1.23-.09-1.9-.09-9.4,0-13.74,5.19-13.74,9.56ZM12.47,28.35c1.36,1.61,3.32,2.34,5.92,2.34,6.93,0,12.54-8.77,12.54-16.97,0-4.88-2.53-7.5-7.38-8.11-2.56,1.23-4.21,5.6-6.68,13.04-1.42,4.4-2.66,7.63-4.4,9.69Z"/>
  <path d="M45.91,23.98c-1.17,3.07-1.36,4.15-1.36,4.91s.41,1.33,1.2,1.33c1.33,0,3.64-2.31,5.86-6.02.1-.16.29.03.19.19-2.12,3.61-4.5,6.4-6.68,6.4-1.74,0-2.63-1.04-2.53-2.91.03-.7.19-1.42.19-1.42l-.1-.06c-1.42,2.31-3.51,4.5-5.35,4.5s-3.48-1.2-3.48-4.18c0-5.07,5.38-9.82,9.31-9.82,1.61,0,2.28,1.01,2.18,2.47h.06c.73-1.46,2.53-2.15,3.42-2.15.19,0,.25.06.25.16s-.03.13-.16.25c-.54.51-1.39,2.12-3.01,6.36ZM43.37,17.3c-2.75,0-7.06,5.51-7.06,10.54,0,2.06.54,2.63,1.42,2.63,1.04,0,3.51-1.9,4.97-4.78,1.77-3.39,2.34-5.73,2.34-6.68,0-1.11-.57-1.71-1.68-1.71Z"/>
  <path d="M63.2,6.82c.25,0,.32.06.32.16,0,.06-.06.13-.22.13-2.47.09-4.12,2.09-5.79,6.68l-3.86,10.61c-.82,2.28-1.08,3.48-1.08,4.27,0,1.04.38,1.49,1.2,1.49,1.23,0,3.32-2.28,5.54-5.95.1-.16.29.03.19.19-2.12,3.61-4.27,6.4-6.52,6.4-1.49,0-2.47-.92-2.47-2.75,0-.82.32-2.18,1.01-4.15l3.13-8.93c2.25-6.4,6.46-8.14,8.55-8.14Z"/>
  <path d="M63.26,30.89c-2.47,0-4.97-1.23-4.97-4.56,0-4.59,4.78-9.44,8.52-9.44,1.52,0,2.79.73,2.79,2.34,0,1.93-3.55,5.29-8.36,5.29-.22.92-.35,1.84-.35,2.66,0,2.47,1.01,3.36,2.6,3.36,2.41,0,6.24-2.69,8.42-6.33.09-.16.28.03.19.19-2.09,3.61-5.83,6.49-8.83,6.49ZM61.3,24.27c4.62,0,6.68-4.05,6.68-5.64,0-1.08-.47-1.49-1.36-1.49-2.22,0-4.43,3.64-5.32,7.12Z"/>
  <path d="M78.11,18.25c-.1,0-.16-.06-.16-.13,0-.09.06-.13.16-.16,1.33-.35,2.18-.79,2.66-.79.44,0,.73.29.7.82-.03.76-.41,1.71-.82,3.07l.13.03c1.99-2.98,3.86-4.21,5.67-4.21,2.03,0,3.45,1.3,3.45,4.02s-1.49,5.73-3.42,7.66c.25.19.6.32,1.11.32,1.58,0,3.93-1.04,6.11-4.69.09-.16.28.03.19.19-2.12,3.58-4.5,4.84-6.59,4.84-.47,0-.98-.03-1.42-.09-1.27,1.08-2.69,1.74-4.02,1.74-1.84,0-3.17-.98-3.39-2.63h-.06l-1.52,4.56c-1.42,4.31-5.1,7.5-5.89,7.5-.03,0-.1-.03-.1-.1,0-.09.1-.19.25-.35.54-.51,1.42-1.84,2.5-4.72,1.33-3.51,2.18-5.79,4.5-13.27.44-1.52.76-2.47.76-3.04,0-.48-.25-.6-.79-.6ZM81.44,30.44c.98,0,2.03-.73,3.01-1.87-.09-.1-.13-.19-.13-.32,0-.63.73-1.3,1.14-1.3.03,0,.06,0,.1.03,1.23-2.09,2.12-4.81,2.12-7.25,0-1.9-.6-2.44-1.61-2.44-1.17,0-3.23,1.14-5.03,3.89-1.01,1.55-2.34,5.29-2.34,6.59,0,1.58,1.14,2.66,2.75,2.66Z"/>
  <path d="M105.28,6.82c.25,0,.32.06.32.16,0,.06-.06.13-.22.13-2.47.09-4.12,2.09-5.79,6.68l-3.86,10.61c-.82,2.28-1.08,3.48-1.08,4.27,0,1.04.38,1.49,1.2,1.49,1.23,0,3.32-2.28,5.54-5.95.1-.16.29.03.19.19-2.12,3.61-4.27,6.4-6.52,6.4-1.49,0-2.47-.92-2.47-2.75,0-.82.32-2.18,1.01-4.15l3.13-8.93c2.25-6.4,6.46-8.14,8.55-8.14Z"/>
  <path d="M112.28,23.98c-1.17,3.07-1.36,4.15-1.36,4.91s.41,1.33,1.2,1.33c1.33,0,3.64-2.31,5.86-6.02.1-.16.29.03.19.19-2.12,3.61-4.5,6.4-6.68,6.4-1.74,0-2.63-1.04-2.53-2.91.03-.7.19-1.42.19-1.42l-.1-.06c-1.42,2.31-3.51,4.5-5.35,4.5s-3.48-1.2-3.48-4.18c0-5.07,5.38-9.82,9.31-9.82,1.61,0,2.28,1.01,2.18,2.47h.06c.73-1.46,2.53-2.15,3.42-2.15.19,0,.25.06.25.16s-.03.13-.16.25c-.54.51-1.39,2.12-3.01,6.36ZM109.75,17.3c-2.75,0-7.06,5.51-7.06,10.54,0,2.06.54,2.63,1.42,2.63,1.04,0,3.51-1.9,4.97-4.78,1.77-3.39,2.34-5.73,2.34-6.68,0-1.11-.57-1.71-1.68-1.71Z"/>
  <path d="M117.35,42.16c-1.68,0-3.1-1.08-3.1-2.69,0-3.26,4.34-4.21,9.34-6.43l.03-.1,2.34-7.03-.06-.03c-1.2,2.28-3.58,5-5.92,5-1.74,0-3.04-1.01-3.04-2.91,0-2.31,2.85-8.07,2.85-9.18,0-.38-.25-.51-.79-.51-.1,0-.16-.03-.16-.13s.06-.13.19-.16c1.3-.32,2.25-.82,2.69-.82.41,0,.73.25.73.76,0,1.61-3.32,7.85-3.32,10.45,0,1.42.51,2.03,1.52,2.03,1.49,0,4.05-2.5,5.29-5.19.44-1.01,2.28-5.86,2.28-5.86.54-1.27,1.74-2.06,3.2-2.06.22,0,.32.06.32.22-.03.19-.57.35-1.36,2.56l-4.08,11.65c3.01-1.61,6.02-3.89,8.26-7.54.1-.16.29.03.19.19-2.37,3.77-5.51,6.08-8.58,7.73l-.41,1.17c-1.96,5.57-5.45,8.87-8.39,8.87ZM123.46,33.39c-4.78,2.09-8.87,3.04-8.87,6.05,0,1.33,1.2,2.34,2.66,2.34,2.28,0,4.18-2.41,6.21-8.39Z"/>
  <path d="M150.98,23.98c-1.17,3.07-1.36,4.15-1.36,4.91s.41,1.33,1.2,1.33c1.33,0,3.64-2.31,5.86-6.02.09-.16.29.03.19.19-2.12,3.61-4.5,6.4-6.68,6.4-1.74,0-2.63-1.04-2.53-2.91.03-.7.19-1.42.19-1.42l-.1-.06c-1.42,2.31-3.51,4.5-5.35,4.5s-3.48-1.2-3.48-4.18c0-5.07,5.38-9.82,9.31-9.82,1.61,0,2.28,1.01,2.18,2.47h.06c.73-1.46,2.53-2.15,3.42-2.15.19,0,.25.06.25.16s-.03.13-.16.25c-.54.51-1.39,2.12-3.01,6.36ZM148.45,17.3c-2.75,0-7.06,5.51-7.06,10.54,0,2.06.54,2.63,1.42,2.63,1.04,0,3.51-1.9,4.97-4.78,1.77-3.39,2.34-5.73,2.34-6.68,0-1.11-.57-1.71-1.68-1.71Z"/>
  <path d="M163.23,18.28c-.09,0-.16-.06-.16-.13,0-.09.06-.13.19-.16,1.3-.32,2.22-.82,2.66-.82.41,0,.7.29.67.82-.03.6-.29,1.49-.73,2.82l.13.03c1.36-2.06,3.01-3.96,5.32-3.96,1.62,0,2.34,1.3,2.25,2.91-.03.7-.25,1.39-.25,1.39l.16.03c1.65-2.75,3.67-4.34,5.41-4.34,1.36,0,2.38.76,2.38,2.41,0,2.15-2.95,6.33-2.95,9.44,0,.92.44,1.39,1.11,1.39,1.11,0,3.36-2.25,5.51-5.92.1-.16.29.03.19.19-2.09,3.61-4.34,6.4-6.65,6.4-1.52,0-2.41-.79-2.41-2.63,0-2.85,3.07-7.19,3.07-9.37,0-.95-.44-1.33-1.17-1.33-1.01,0-2.82,1.36-4.31,3.99-.44.76-.82,1.42-2.75,7.22-.38,1.11-1.14,1.87-2.5,1.87-.29,0-.41-.1-.41-.25,0-.19.13-.32.47-1.33l2.47-7.38c.44-1.23.67-2.06.67-2.79,0-.95-.44-1.33-1.33-1.33-1.2,0-3.01,1.74-4.37,4.02-.73,1.17-1.39,2.72-2.98,7.06-.47,1.27-1.14,1.99-2.53,1.99-.29,0-.41-.1-.41-.25,0-.19.13-.32.51-1.33l2.56-7.06c.73-2.03.98-2.69.98-3.07,0-.41-.25-.54-.79-.54Z"/>
  <path d="M185.97,30.79c-1.49,0-2.34-.82-2.34-2.25,0-1.08.6-2.5,1.23-4.27l1.74-4.91c.48-1.3,1.52-2.06,2.98-2.06.22,0,.32.06.32.19,0,.22-.67.89-1.27,2.6l-2.31,6.49c-.38,1.08-.6,1.84-.6,2.28,0,.82.44,1.27,1.27,1.27,1.17,0,3.61-2.25,5.79-5.92.09-.16.28.03.19.19-2.12,3.64-4.69,6.4-7,6.4ZM194.21,8.85c.66,0,1.04.35,1.01.82,0,.25-.09.44-.51.73l-5.83,4.08c-.19.13-.32.03-.16-.16l4.08-4.88c.35-.41.7-.6,1.39-.6Z"/>
  <path d="M202.18,30.89c-2.79,0-4.88-1.46-4.88-4.53,0-4.69,4.81-9.47,8.71-9.47,1.71,0,2.94.51,2.94,1.8,0,1.58-2,2.94-2.47,2.94-.06,0-.09-.06-.09-.1,0-.28.79-1.27.79-2.88,0-1.11-.35-1.46-1.3-1.46-3.29,0-6.05,6.36-6.05,10.1,0,2.5,1.36,3.23,2.82,3.23,2.47,0,6.4-2.69,8.58-6.33.09-.16.29.03.19.19-2.09,3.61-5.92,6.49-9.25,6.49Z"/>
  <path d="M222.14,23.98c-1.17,3.07-1.36,4.15-1.36,4.91s.41,1.33,1.2,1.33c1.33,0,3.64-2.31,5.86-6.02.09-.16.29.03.19.19-2.12,3.61-4.5,6.4-6.68,6.4-1.74,0-2.63-1.04-2.53-2.91.03-.7.19-1.42.19-1.42l-.09-.06c-1.42,2.31-3.51,4.5-5.35,4.5s-3.48-1.2-3.48-4.18c0-5.07,5.38-9.82,9.31-9.82,1.62,0,2.28,1.01,2.19,2.47h.06c.73-1.46,2.53-2.15,3.42-2.15.19,0,.25.06.25.16s-.03.13-.16.25c-.54.51-1.39,2.12-3.01,6.36ZM219.6,17.3c-2.75,0-7.06,5.51-7.06,10.54,0,2.06.54,2.63,1.42,2.63,1.04,0,3.51-1.9,4.97-4.78,1.77-3.39,2.34-5.73,2.34-6.68,0-1.11-.57-1.71-1.68-1.71Z"/>
  <path d="M237.43,30.79c-1.52,0-2.41-.79-2.41-2.63,0-2.85,3.07-7.19,3.07-9.37,0-.95-.48-1.3-1.3-1.3-.89,0-3.2.95-5.13,3.7-.82,1.17-1.52,2.94-3.13,7.35-.47,1.27-1.17,1.99-2.53,1.99-.29,0-.41-.1-.41-.25.03-.19.16-.32.54-1.33l2.53-7.06c.73-1.96.98-2.69.98-3.01,0-.44-.25-.6-.79-.6-.09,0-.16-.03-.16-.13s.06-.13.19-.16c1.3-.32,2.22-.82,2.66-.82s.7.29.7.82c0,.76-.35,1.58-.79,2.91l.06.06c2.09-2.79,4.59-4.08,6.36-4.08,1.33,0,2.34.76,2.34,2.41,0,2.15-2.94,6.33-2.94,9.44,0,.92.41,1.39,1.11,1.39,1.11,0,3.36-2.25,5.51-5.92.09-.16.29.03.19.19-2.09,3.61-4.34,6.4-6.65,6.4Z"/>
  <path d="M247.75,30.89c-2.79,0-4.88-1.46-4.88-4.53,0-4.69,4.81-9.47,8.71-9.47,1.71,0,2.94.51,2.94,1.8,0,1.58-2,2.94-2.47,2.94-.06,0-.09-.06-.09-.1,0-.28.79-1.27.79-2.88,0-1.11-.35-1.46-1.3-1.46-3.29,0-6.05,6.36-6.05,10.1,0,2.5,1.36,3.23,2.82,3.23,2.47,0,6.4-2.69,8.58-6.33.09-.16.29.03.19.19-2.09,3.61-5.92,6.49-9.25,6.49Z"/>
  <path d="M257.86,30.79c-1.49,0-2.34-.82-2.34-2.25,0-1.08.6-2.5,1.23-4.27l1.74-4.91c.48-1.3,1.52-2.06,2.98-2.06.22,0,.32.06.32.19,0,.22-.67.89-1.27,2.6l-2.31,6.49c-.38,1.08-.6,1.84-.6,2.28,0,.82.44,1.27,1.27,1.27,1.17,0,3.61-2.25,5.79-5.92.09-.16.28.03.19.19-2.12,3.64-4.69,6.4-7,6.4ZM263.14,10.94c.6,0,1.17.7,1.17,1.46s-1.27,1.77-2.06,1.77c-.57,0-1.17-.7-1.17-1.46s1.27-1.77,2.06-1.77Z"/>
  <path d="M263.65,26.39c0-5.1,4.91-9.5,9.02-9.5,2.63,0,3.99,1.77,3.99,4.24,0,2.98-1.55,5.6-3.55,7.38.28.22.63.38,1.2.38,1.58,0,3.93-1.04,6.11-4.69.09-.16.29.03.19.19-2.12,3.58-4.5,4.84-6.59,4.84-.54,0-1.14-.03-1.62-.13-1.49,1.11-3.13,1.77-4.53,1.77-2.88,0-4.24-1.84-4.24-4.5ZM271.16,28.54c-.06-.1-.09-.19-.09-.29,0-.63.73-1.3,1.14-1.3,1.17-2.12,2-4.81,2-7.03,0-2.03-.6-2.79-1.77-2.79-3.13,0-6.3,5.54-6.3,10.32,0,2.41.63,3.17,1.93,3.17,1.04,0,2.12-.82,3.1-2.09ZM277.58,8.85c.67,0,1.04.35,1.01.82,0,.25-.1.44-.51.73l-5.83,4.08c-.19.13-.32.03-.16-.16l4.08-4.88c.35-.41.7-.6,1.39-.6Z"/>
  <path d="M290.03,30.79c-1.52,0-2.41-.79-2.41-2.63,0-2.85,3.07-7.19,3.07-9.37,0-.95-.48-1.3-1.3-1.3-.89,0-3.2.95-5.13,3.7-.82,1.17-1.52,2.94-3.13,7.35-.47,1.27-1.17,1.99-2.53,1.99-.29,0-.41-.1-.41-.25.03-.19.16-.32.54-1.33l2.53-7.06c.73-1.96.98-2.69.98-3.01,0-.44-.25-.6-.79-.6-.1,0-.16-.03-.16-.13s.06-.13.19-.16c1.3-.32,2.22-.82,2.66-.82s.7.29.7.82c0,.76-.35,1.58-.79,2.91l.06.06c2.09-2.79,4.59-4.08,6.36-4.08,1.33,0,2.34.76,2.34,2.41,0,2.15-2.94,6.33-2.94,9.44,0,.92.41,1.39,1.11,1.39,1.11,0,3.36-2.25,5.51-5.92.09-.16.29.03.19.19-2.09,3.61-4.34,6.4-6.65,6.4Z"/>
  <path d="M100.63,56.22l-3.93,10.42c-2.03,5.32-5.32,7.44-6.08,7.44-.09,0-.13-.03-.13-.1,0-.09.09-.13.32-.32.51-.51,1.84-1.71,3.74-7l3.74-10.45h-1.77c-.09,0-.16-.06-.16-.13s.1-.13.19-.13h1.84l.51-1.39c1.27-3.58,1.9-4.62,3.45-6.68,1.17-1.55,3.48-3.07,5.29-3.07,1.14,0,2.44.63,2.44,1.77,0,1.39-1.77,2.53-2.25,2.53-.13,0-.16-.06-.16-.13,0-.25,1.01-1.46,1.01-2.88,0-.7-.38-1.01-1.14-1.01-1.2,0-2.94,1.65-4.12,4.12-.82,1.74-1.61,3.89-2.47,6.17l-.22.57h1.71c1.55,0,2.12,0,2.85-.22.29-.09.38-.16.44-.16s.13.03.13.13-.13.13-.44.25c-.63.22-1.33.25-2.85.25h-1.93Z"/>
  <path d="M115.83,61.98c-1.17,3.07-1.36,4.15-1.36,4.91s.41,1.33,1.2,1.33c1.33,0,3.64-2.31,5.86-6.02.1-.16.29.03.19.19-2.12,3.61-4.5,6.4-6.68,6.4-1.74,0-2.63-1.04-2.53-2.91.03-.7.19-1.42.19-1.42l-.1-.06c-1.42,2.31-3.51,4.5-5.35,4.5s-3.48-1.2-3.48-4.18c0-5.07,5.38-9.82,9.31-9.82,1.61,0,2.28,1.01,2.18,2.47h.06c.73-1.46,2.53-2.15,3.42-2.15.19,0,.25.06.25.16s-.03.13-.16.25c-.54.51-1.39,2.12-3.01,6.36ZM113.29,55.3c-2.75,0-7.06,5.51-7.06,10.54,0,2.06.54,2.63,1.42,2.63,1.04,0,3.51-1.9,4.97-4.78,1.77-3.39,2.34-5.73,2.34-6.68,0-1.11-.57-1.71-1.68-1.71Z"/>
  <path d="M122.73,66.54c0,1.2.54,1.8,1.33,1.8.85,0,2.12-.79,3.36-1.99v-.1c0-.63.73-1.3,1.14-1.3t.06.03c1.33-1.74,2.37-3.93,2.37-6.08,0-1.55-.57-2.12-1.3-2.37-.1-.03-.13-.06-.13-.13,0-.13.16-.22,1.17-.7.92-.44,1.04-.57,1.33-.57.54,0,1.04.6,1.04,1.93,0,2.5-1.93,5.89-4.27,8.39.16.57.48,1.42,1.71,1.42,1.52,0,3.77-1.08,5.92-4.69.1-.16.29.03.19.19-2.12,3.55-4.37,4.84-6.4,4.84-1.08,0-2.22-.16-2.66-.57-1.49,1.33-3.07,2.22-4.31,2.22-1.61,0-2.69-1.11-2.69-3.07,0-2.75,2.82-7.44,2.82-8.9,0-.41-.29-.6-.79-.6-.1,0-.16-.06-.16-.16s.06-.16.16-.19c1.33-.32,2.28-.79,2.72-.79.41,0,.7.29.7.85,0,1.87-3.32,7.63-3.32,10.51Z"/>
  <path d="M135.46,64.39c0-5.1,4.91-9.5,9.02-9.5,2.63,0,3.99,1.77,3.99,4.24,0,2.98-1.55,5.6-3.55,7.38.29.22.63.38,1.2.38,1.58,0,3.93-1.04,6.11-4.69.1-.16.29.03.19.19-2.12,3.58-4.5,4.84-6.59,4.84-.54,0-1.14-.03-1.61-.13-1.49,1.11-3.13,1.77-4.53,1.77-2.88,0-4.24-1.84-4.24-4.5ZM142.97,66.54c-.06-.09-.1-.19-.1-.29,0-.63.73-1.3,1.14-1.3,1.17-2.12,1.99-4.81,1.99-7.03,0-2.03-.6-2.79-1.77-2.79-3.13,0-6.3,5.54-6.3,10.32,0,2.41.63,3.17,1.93,3.17,1.04,0,2.12-.82,3.1-2.09Z"/>
  <path d="M153.26,56.29c-.1,0-.16-.03-.16-.13s.06-.13.19-.16c1.3-.32,2.22-.82,2.66-.82s.7.29.7.82c0,.67-.29,1.36-.63,2.47l.06.03c1.62-2.44,3.45-3.61,4.88-3.61,1.14,0,2.03.6,2.03,2.03,0,1.8-2.25,3.36-2.75,3.36-.09,0-.13-.03-.13-.1,0-.25.95-1.33.95-3.2,0-.98-.35-1.46-.95-1.46-.76,0-2.25.79-3.83,3.13-.86,1.27-1.62,3.2-3.33,7.88-.47,1.27-1.14,2-2.53,2-.29,0-.41-.1-.41-.25.03-.19.16-.32.54-1.33l2.53-7.06c.7-1.96.98-2.69.98-3.01,0-.44-.25-.6-.79-.6Z"/>
  <path d="M165.14,68.79c-1.49,0-2.34-.82-2.34-2.25,0-1.08.6-2.5,1.23-4.27l1.74-4.91c.48-1.3,1.52-2.06,2.98-2.06.22,0,.32.06.32.19,0,.22-.67.89-1.27,2.6l-2.31,6.49c-.38,1.08-.6,1.84-.6,2.28,0,.82.44,1.27,1.27,1.27,1.17,0,3.61-2.25,5.79-5.92.09-.16.28.03.19.19-2.12,3.64-4.69,6.4-7,6.4ZM170.42,48.94c.6,0,1.17.7,1.17,1.46s-1.27,1.77-2.06,1.77c-.57,0-1.17-.7-1.17-1.46s1.27-1.77,2.06-1.77Z"/>
  <path d="M180.65,62.4c-2.12,3.61-4.65,6.4-7.25,6.4-1.39,0-2.53-1.01-2.53-2.69,0-.85.28-1.84,1.01-3.89l2.34-6.65h-1.46c-.09,0-.16-.03-.16-.13s.06-.13.16-.13h1.55l1.17-3.26c.19-.54.32-.63.79-.73.73-.1,1.58-.82,2.12-1.39.19-.19.32-.13.22.13-.73,1.99-1.39,3.74-1.93,5.26h2.72c.09,0,.16.03.16.13s-.06.13-.16.13h-2.82c-1.23,3.32-2.06,5.6-2.63,7.22-.7,1.93-.95,3.01-.95,3.74,0,.98.57,1.61,1.49,1.61,1.3,0,3.77-2.25,5.95-5.92.1-.16.29.03.19.19Z"/>
  <path d="M191.35,61.98c-1.17,3.07-1.36,4.15-1.36,4.91s.41,1.33,1.2,1.33c1.33,0,3.64-2.31,5.86-6.02.09-.16.29.03.19.19-2.12,3.61-4.5,6.4-6.68,6.4-1.74,0-2.63-1.04-2.53-2.91.03-.7.19-1.42.19-1.42l-.09-.06c-1.42,2.31-3.51,4.5-5.35,4.5s-3.48-1.2-3.48-4.18c0-5.07,5.38-9.82,9.31-9.82,1.62,0,2.28,1.01,2.19,2.47h.06c.73-1.46,2.53-2.15,3.42-2.15.19,0,.25.06.25.16s-.03.13-.16.25c-.54.51-1.39,2.12-3.01,6.36ZM188.82,55.3c-2.75,0-7.06,5.51-7.06,10.54,0,2.06.54,2.63,1.42,2.63,1.04,0,3.51-1.9,4.97-4.78,1.77-3.39,2.34-5.73,2.34-6.68,0-1.11-.57-1.71-1.68-1.71Z"/>
  <path d="M198.32,68.79c-.6,0-1.33-.89-1.3-1.58.03-.6,1.46-1.71,2.06-1.71.63,0,1.27.82,1.23,1.52-.03.6-1.36,1.77-1.99,1.77Z"/>
</svg>