<?xml version="1.0" encoding="UTF-8"?>
<svg id="Capa_1" xmlns="http://www.w3.org/2000/svg" version="1.1" viewBox="0 0 448 86.48">
  <!-- Generator: Adobe Illustrator 29.6.1, SVG Export Plug-In . SVG Version: 2.1.1 Build 9)  -->
  <path d="M33.07,65.35c0-.12.06-.18.23-.18s.41.06,1,.06c4.04,0,6.56-2.29,13.36-22.27,4.63-13.65,5.45-16.93,14.94-21.45-1.17-.18-2.4-.35-3.63-.53-4.34-.64-8.67-1.17-12.01-1.17-9.79,0-13.3,6.15-13.3,11.07,0,4.22,1.7,6.27,4.45,8.26.41.29.12.64-.29.35-3.11-1.99-5.62-4.86-5.62-10.2s3.4-10.37,10.9-10.37c5.86,0,11.02.88,15.88,1.58,3.52.47,6.91.94,10.31.94,6.86,0,9.84-2.7,11.25-5.04.29-.53.64-.29.41.23-1.88,4.04-3.75,5.92-8.09,5.92-2.46,0-5.92-.41-9.61-.94-3.63,2.29-5.74,9.61-10.49,23.03-6.04,17.11-9.32,21.09-18.22,21.09-.88,0-1.46-.12-1.46-.41Z"/>
  <path d="M81.12,53.04c-2.17,5.68-2.52,7.68-2.52,9.08s.76,2.46,2.23,2.46c2.46,0,6.74-4.28,10.84-11.13.18-.29.53.06.35.35-3.93,6.68-8.32,11.84-12.36,11.84-3.22,0-4.86-1.93-4.69-5.39.06-1.29.35-2.64.35-2.64l-.18-.12c-2.64,4.28-6.5,8.32-9.9,8.32s-6.45-2.23-6.45-7.73c0-9.38,9.96-18.16,17.23-18.16,2.99,0,4.22,1.88,4.04,4.57h.12c1.35-2.7,4.69-3.98,6.33-3.98.35,0,.47.12.47.29s-.06.23-.29.47c-1,.94-2.58,3.93-5.57,11.78ZM76.43,40.68c-5.1,0-13.07,10.2-13.07,19.51,0,3.81,1,4.86,2.64,4.86,1.93,0,6.5-3.52,9.2-8.85,3.28-6.27,4.34-10.61,4.34-12.36,0-2.05-1.05-3.16-3.11-3.16Z"/>
  <path d="M109.42,65.64c-2.81,0-4.45-1.46-4.45-4.86,0-5.27,5.68-13.3,5.68-17.34,0-1.76-.88-2.4-2.4-2.4-1.64,0-5.92,1.76-9.49,6.86-1.52,2.17-2.81,5.45-5.8,13.59-.88,2.34-2.17,3.69-4.69,3.69-.53,0-.76-.18-.76-.47.06-.35.29-.59,1-2.46l4.69-13.07c1.35-3.63,1.82-4.98,1.82-5.57,0-.82-.47-1.11-1.46-1.11-.18,0-.29-.06-.29-.23s.12-.23.35-.29c2.4-.59,4.1-1.52,4.92-1.52s1.29.53,1.29,1.52c0,1.41-.64,2.93-1.46,5.39l.12.12c3.87-5.16,8.5-7.56,11.78-7.56,2.46,0,4.34,1.41,4.34,4.45,0,3.98-5.45,11.72-5.45,17.46,0,1.7.76,2.58,2.05,2.58,2.05,0,6.21-4.16,10.2-10.96.18-.29.53.06.35.35-3.87,6.68-8.03,11.84-12.3,11.84Z"/>
  <path d="M165.37,30.31c.59-.76,1-1.93,1-3.93,0-4.39-2.99-7.09-8.09-7.09-5.57,0-9.79,4.28-9.79,7.97,0,8.38,14.94,12.77,14.94,22.79,0,7.09-6.15,15.82-17.4,15.82-7.15,0-12.71-3.16-12.71-8.44,0-4.75,4.51-8.2,7.97-9.96.41-.18.59.12.29.41-1.99,1.88-3.98,4.69-3.98,8.96,0,5.57,4.1,8.32,9.43,8.32,8.44,0,11.43-6.86,11.43-11.54,0-10.14-14.3-14.53-14.3-22.56,0-6.15,7.38-12.66,16.7-12.66,5.33,0,8.55,2.34,8.55,5.45,0,2.29-1.23,4.51-3.81,6.74-.23.18-.47.06-.23-.29Z"/>
  <path d="M168.76,57.49c0-9.43,9.08-17.58,16.7-17.58,4.86,0,7.38,3.28,7.38,7.85,0,5.51-2.87,10.37-6.56,13.65.53.41,1.17.7,2.23.7,2.93,0,7.27-1.93,11.31-8.67.18-.29.53.06.35.35-3.93,6.62-8.32,8.96-12.19,8.96-1,0-2.11-.06-2.99-.23-2.75,2.05-5.8,3.28-8.38,3.28-5.33,0-7.85-3.4-7.85-8.32ZM182.65,61.48c-.12-.18-.18-.35-.18-.53,0-1.17,1.35-2.4,2.11-2.4,2.17-3.93,3.69-8.91,3.69-13.01,0-3.75-1.11-5.16-3.28-5.16-5.8,0-11.66,10.25-11.66,19.1,0,4.45,1.17,5.86,3.57,5.86,1.93,0,3.93-1.52,5.74-3.87Z"/>
  <path d="M221.26,21.28c.47,0,.59.12.59.29,0,.12-.12.23-.41.23-4.57.18-7.62,3.87-10.72,12.36l-7.15,19.63c-1.52,4.22-1.99,6.45-1.99,7.91,0,1.93.7,2.75,2.23,2.75,2.29,0,6.15-4.22,10.25-11.02.18-.29.53.06.35.35-3.93,6.68-7.91,11.84-12.07,11.84-2.75,0-4.57-1.7-4.57-5.1,0-1.52.59-4.04,1.88-7.68l5.8-16.52c4.16-11.84,11.95-15.06,15.82-15.06Z"/>
  <path d="M212.17,57.49c0-9.43,9.08-17.58,16.7-17.58,4.86,0,7.38,3.28,7.38,7.85,0,5.51-2.87,10.37-6.56,13.65.53.41,1.17.7,2.23.7,2.93,0,7.27-1.93,11.31-8.67.18-.29.53.06.35.35-3.93,6.62-8.32,8.96-12.19,8.96-1,0-2.11-.06-2.99-.23-2.75,2.05-5.8,3.28-8.38,3.28-5.33,0-7.85-3.4-7.85-8.32ZM226.06,61.48c-.12-.18-.18-.35-.18-.53,0-1.17,1.35-2.4,2.11-2.4,2.17-3.93,3.69-8.91,3.69-13.01,0-3.75-1.11-5.16-3.28-5.16-5.8,0-11.66,10.25-11.66,19.1,0,4.45,1.17,5.86,3.57,5.86,1.93,0,3.93-1.52,5.74-3.87Z"/>
  <path d="M254.47,31.3c0-6.5,5.33-13.01,17.29-13.01,8.38,0,14.77,1.7,23.38,1.7,4.75,0,7.21-1.7,8.09-3.22.29-.53.76-.35.53.18-1.35,2.7-4.04,5.8-8.14,5.8s-7.27-1.46-12.07-2.58c-4.1,2.4-6.74,10.02-11.48,23.44,1-.47,2.17-.7,3.57-.7,2.7,0,4.8.76,7.38.76s3.81-1.05,4.45-1.93c.35-.47.7-.29.35.23-1.52,2.29-3.28,4.1-5.04,4.1-2.29,0-4.86-2.46-8.32-2.46-1,0-1.88.23-2.58.64l-.06.12c-6.04,17.17-9.26,21.21-18.11,21.21-1,0-1.52-.18-1.52-.41,0-.18.06-.23.23-.23s.35.06,1,.06c4.16,0,6.8-2.23,13.54-22.09,4.92-14.53,5.8-18.05,15.88-22.91-2.99-.64-6.56-1.17-11.13-1.17-11.6,0-16.58,6.21-16.58,12.42,0,4.98,2.81,7.5,7.44,7.97.59.06.47.59-.06.53-4.8-.41-8.03-3.05-8.03-8.44Z"/>
  <path d="M308.26,53.04c-2.17,5.68-2.52,7.68-2.52,9.08s.76,2.46,2.23,2.46c2.46,0,6.74-4.28,10.84-11.13.18-.29.53.06.35.35-3.93,6.68-8.32,11.84-12.36,11.84-3.22,0-4.86-1.93-4.69-5.39.06-1.29.35-2.64.35-2.64l-.18-.12c-2.64,4.28-6.5,8.32-9.9,8.32s-6.45-2.23-6.45-7.73c0-9.38,9.96-18.16,17.23-18.16,2.99,0,4.22,1.88,4.04,4.57h.12c1.35-2.7,4.69-3.98,6.33-3.98.35,0,.47.12.47.29s-.06.23-.29.47c-1,.94-2.58,3.93-5.57,11.78ZM303.57,40.68c-5.1,0-13.07,10.2-13.07,19.51,0,3.81,1,4.86,2.64,4.86,1.93,0,6.5-3.52,9.2-8.85,3.28-6.27,4.34-10.61,4.34-12.36,0-2.05-1.05-3.16-3.11-3.16Z"/>
  <path d="M340.25,21.28c.47,0,.59.12.59.29,0,.12-.12.23-.41.23-4.57.18-7.62,3.87-10.72,12.36l-7.15,19.63c-1.52,4.22-1.99,6.45-1.99,7.91,0,1.93.7,2.75,2.23,2.75,2.29,0,6.15-4.22,10.25-11.02.18-.29.53.06.35.35-3.93,6.68-7.91,11.84-12.07,11.84-2.75,0-4.57-1.7-4.57-5.1,0-1.52.59-4.04,1.88-7.68l5.8-16.52c4.16-11.84,11.95-15.06,15.82-15.06Z"/>
  <path d="M349.15,53.8c-3.93,6.68-8.61,11.84-13.42,11.84-2.58,0-4.69-1.88-4.69-4.98,0-1.58.53-3.4,1.88-7.21l4.34-12.3h-2.7c-.18,0-.29-.06-.29-.23s.12-.23.29-.23h2.87l2.17-6.04c.35-1,.59-1.17,1.46-1.35,1.35-.18,2.93-1.52,3.93-2.58.35-.35.59-.23.41.23-1.35,3.69-2.58,6.91-3.57,9.73h5.04c.18,0,.29.06.29.23s-.12.23-.29.23h-5.21c-2.29,6.15-3.81,10.37-4.86,13.36-1.29,3.57-1.76,5.57-1.76,6.91,0,1.82,1.05,2.99,2.75,2.99,2.4,0,6.97-4.16,11.02-10.96.18-.29.53.06.35.35Z"/>
  <path d="M368.95,53.04c-2.17,5.68-2.52,7.68-2.52,9.08s.76,2.46,2.23,2.46c2.46,0,6.74-4.28,10.84-11.13.18-.29.53.06.35.35-3.93,6.68-8.32,11.84-12.36,11.84-3.22,0-4.86-1.93-4.69-5.39.06-1.29.35-2.64.35-2.64l-.18-.12c-2.64,4.28-6.5,8.32-9.9,8.32s-6.45-2.23-6.45-7.73c0-9.38,9.96-18.16,17.23-18.16,2.99,0,4.22,1.88,4.04,4.57h.12c1.35-2.7,4.69-3.98,6.33-3.98.35,0,.47.12.47.29s-.06.23-.29.47c-1,.94-2.58,3.93-5.57,11.78ZM364.27,40.68c-5.1,0-13.07,10.2-13.07,19.51,0,3.81,1,4.86,2.64,4.86,1.93,0,6.5-3.52,9.2-8.85,3.28-6.27,4.34-10.61,4.34-12.36,0-2.05-1.05-3.16-3.11-3.16ZM373.93,25.03c1.23,0,1.93.64,1.88,1.52,0,.47-.18.82-.94,1.35l-10.78,7.56c-.35.23-.59.06-.29-.29l7.56-9.02c.64-.76,1.29-1.11,2.58-1.11Z"/>
  <path d="M397.25,65.64c-2.81,0-4.45-1.46-4.45-4.86,0-5.27,5.68-13.3,5.68-17.34,0-1.76-.88-2.4-2.4-2.4-1.64,0-5.92,1.76-9.49,6.86-1.52,2.17-2.81,5.45-5.8,13.59-.88,2.34-2.17,3.69-4.69,3.69-.53,0-.76-.18-.76-.47.06-.35.29-.59,1-2.46l4.69-13.07c1.35-3.63,1.82-4.98,1.82-5.57,0-.82-.47-1.11-1.46-1.11-.18,0-.29-.06-.29-.23s.12-.23.35-.29c2.4-.59,4.1-1.52,4.92-1.52s1.29.53,1.29,1.52c0,1.41-.64,2.93-1.46,5.39l.12.12c3.87-5.16,8.5-7.56,11.78-7.56,2.46,0,4.34,1.41,4.34,4.45,0,3.98-5.45,11.72-5.45,17.46,0,1.7.76,2.58,2.05,2.58,2.05,0,6.21-4.16,10.2-10.96.18-.29.53.06.35.35-3.87,6.68-8.03,11.84-12.3,11.84Z"/>
</svg>