<?xml version="1.0" encoding="UTF-8"?>
<svg id="Capa_1" xmlns="http://www.w3.org/2000/svg" version="1.1" viewBox="0 0 457.56 177.12">
  <!-- Generator: Adobe Illustrator 29.6.1, SVG Export Plug-In . SVG Version: 2.1.1 Build 9)  -->
  <defs>
    <style>
      .st0 {
        font-family: NovantiqueScript-Light, 'Novantique Script';
        font-size: 86.45px;
        font-weight: 300;
      }

      .st1 {
        font-family: ArialRoundedMTBold, 'Arial Rounded MT Bold';
        font-size: 19.92px;
      }
    </style>
  </defs>
  <text class="st0" transform="translate(94.19 -587.95)"><tspan x="0" y="0">Galeria</tspan></text>
  <text class="st1" transform="translate(75.63 142.96)"><tspan x="0" y="0">GRACIAS POR ACOMPAÑARME</tspan></text>
  <g>
    <path d="M76,57.24c-.25,0-.5-.11-.73-.33-.23-.22-.34-.49-.34-.82,0-.36.21-1.06.63-2.1.42-1.04.97-2.29,1.66-3.75.69-1.45,1.45-2.99,2.29-4.62.84-1.63,1.68-3.23,2.52-4.79.84-1.57,1.63-2.98,2.37-4.24.74-1.26,1.35-2.22,1.83-2.89.08.03.15.05.23.08.08.03.15.05.23.08,0,.64-.11,1.38-.34,2.24-.23.85-.5,1.71-.82,2.58-.32.87-.62,1.67-.9,2.41-.56,1.45-1.15,2.94-1.76,4.47s-1.22,2.99-1.83,4.38c-.61,1.39-1.21,2.64-1.8,3.74-.59,1.11-1.15,1.98-1.7,2.62s-1.06.96-1.55.96ZM86.55,32.44c-.38,0-.69-.09-.94-.27-.24-.18-.36-.48-.36-.92s.24-.86.71-1.28c.47-.42.99-.63,1.55-.63.41,0,.76.1,1.07.31s.46.54.46.99c0,.48-.26.9-.78,1.26-.52.36-1.09.54-1.7.54Z"/>
    <path d="M91.86,48.87c-1.2,0-2.03-.4-2.5-1.2-.47-.8-.71-1.75-.71-2.85,0-1.25.23-2.71.69-4.39.46-1.68,1.06-3.45,1.81-5.29.75-1.85,1.58-3.66,2.48-5.43.9-1.77,1.81-3.37,2.73-4.8.92-1.43,1.76-2.57,2.54-3.42.78-.85,1.41-1.28,1.89-1.28.33,0,.61.17.84.52.23.34.41.75.55,1.22.14.47.21.91.21,1.32,0,.69-.17,1.59-.52,2.69-.34,1.11-.83,2.33-1.45,3.65-.62,1.32-1.36,2.68-2.22,4.07-.85,1.39-1.8,2.71-2.83,3.95-1.03,1.25-2.13,2.33-3.31,3.25-.1.64-.2,1.27-.29,1.89-.09.62-.13,1.19-.13,1.7,0,.92.15,1.59.46,2.01.31.42.7.63,1.18.63.64,0,1.29-.3,1.97-.9.67-.6,1.32-1.36,1.95-2.29s1.17-1.89,1.62-2.88l.92.5c-1.1,2.27-2.32,4.06-3.67,5.37-1.35,1.31-2.76,1.97-4.24,1.97ZM92.77,38.52c.87-.94,1.69-1.97,2.46-3.08.78-1.11,1.49-2.24,2.14-3.38.65-1.15,1.22-2.25,1.7-3.32.48-1.07.86-2.03,1.13-2.88.27-.85.41-1.53.44-2.04v-.12c-.2,0-.53.29-.97.86-.45.57-.97,1.36-1.59,2.35s-1.24,2.13-1.89,3.4c-.65,1.27-1.27,2.62-1.87,4.03-.6,1.41-1.11,2.81-1.55,4.18Z"/>
    <path d="M100.45,48.95c-1.15,0-1.93-.38-2.35-1.13s-.63-1.57-.63-2.46c0-.81.13-1.65.38-2.5.25-.85.6-1.65,1.05-2.39.45-.74.94-1.33,1.49-1.78.55-.45,1.1-.67,1.66-.67.18,0,.39.03.63.1.24.06.41.16.52.29-.31.38-.62.85-.94,1.41-.32.56-.61,1.15-.88,1.78-.27.62-.48,1.25-.63,1.89s-.23,1.22-.23,1.76.1.93.29,1.26.53.5,1.01.5,1.06-.27,1.74-.82c.67-.55,1.32-1.18,1.93-1.89-.82-.74-1.4-1.55-1.76-2.43-.36-.88-.54-1.94-.54-3.19,0-.54.13-1.15.4-1.83.27-.69.7-1.29,1.3-1.8.6-.51,1.41-.76,2.43-.76,1.1,0,1.87.31,2.31.92.45.61.67,1.34.67,2.18,0,.94-.25,2-.75,3.17-.5,1.17-1.09,2.28-1.78,3.32.31.15.66.23,1.07.23.38,0,.84-.09,1.38-.27.53-.18,1.06-.48,1.57-.9.51-.42.92-.99,1.22-1.7l.69.5c-.56,1.3-1.31,2.25-2.24,2.85-.93.6-1.84.9-2.73.9-.33,0-.66-.03-.99-.1s-.64-.15-.92-.25c-.87,1.02-1.86,1.91-2.98,2.67-1.12.76-2.25,1.15-3.4,1.15ZM106.49,43.06c.61-.89,1.13-1.85,1.57-2.87.43-1.02.65-1.96.65-2.83,0-.59-.09-1.01-.27-1.28-.18-.27-.45-.4-.8-.4-.48,0-.98.34-1.49,1.03-.51.69-.76,1.55-.76,2.6,0,.54.1,1.18.29,1.95.19.76.46,1.36.82,1.8Z"/>
    <path d="M116.62,49.67c-1.27,0-2.3-.26-3.08-.78-.78-.52-1.33-1.18-1.66-1.99-.33-.8-.5-1.62-.5-2.46,0-.74.1-1.31.31-1.72.2-.41.46-.71.76-.9s.59-.34.86-.44.46-.22.59-.34c.64-.66,1.29-1.43,1.97-2.31.67-.88,1.25-1.85,1.74-2.92v-.38c0-1.02.17-1.74.52-2.16.34-.42.75-.63,1.2-.63.31,0,.53.08.67.23.14.15.22.33.25.53,0,.15-.03.33-.1.54-.06.2-.1.48-.1.84,0,.76.18,1.64.55,2.62.37.98.74,2.02,1.11,3.11.37,1.1.55,2.22.55,3.36,0,.31-.01.59-.04.84-.03.25-.06.5-.11.73.79-.2,1.57-.64,2.33-1.32s1.49-1.67,2.18-3l.46.34c-.48,1.45-1.18,2.62-2.1,3.5s-1.99,1.42-3.21,1.62c-.41,1.04-1.08,1.82-2.01,2.33-.93.51-1.98.76-3.15.76ZM116.35,47.99c.51,0,.98-.13,1.41-.38.43-.25.78-.62,1.03-1.11-1.04-.23-1.99-.64-2.83-1.22-.84-.59-1.49-1.18-1.95-1.8-.36.08-.53.42-.53,1.03,0,.84.24,1.63.73,2.37.48.74,1.2,1.11,2.14,1.11ZM119.1,45.36c.05-.18.08-.39.1-.63.01-.24.02-.43.02-.55-.03-1.15-.18-2.28-.46-3.4-.28-1.12-.56-2.27-.84-3.44-.46.79-.99,1.64-1.6,2.56s-1.18,1.66-1.72,2.22c.41.69,1.01,1.34,1.8,1.95s1.69,1.04,2.71,1.3Z"/>
    <path d="M155.48,48.91c-.99,0-1.73-.29-2.22-.88-.48-.59-.73-1.29-.73-2.1,0-.59.09-1.17.27-1.76.18-.59.36-1.17.54-1.74.18-.57.27-1.09.27-1.55,0-.43-.08-.73-.25-.9-.17-.17-.38-.25-.63-.25-.59,0-1.27.45-2.04,1.34-.78.89-1.74,2.19-2.88,3.9-.41.61-.79,1.25-1.15,1.93-.36.67-.68,1.24-.96,1.7-.23,0-.53-.04-.9-.11-.37-.08-.69-.19-.97-.33-.28-.14-.42-.33-.42-.55s.13-.67.38-1.34c.25-.66.55-1.43.88-2.31.33-.88.62-1.74.88-2.6.25-.85.38-1.57.38-2.16,0-.36-.06-.64-.19-.84-.13-.2-.33-.31-.61-.31-.54,0-1.18.32-1.93.96-.75.64-1.54,1.47-2.37,2.5-.83,1.03-1.6,2.18-2.33,3.44s-1.32,2.53-1.78,3.8c-.28,0-.62-.06-1.03-.17-.41-.11-.76-.25-1.07-.42-.31-.17-.46-.31-.46-.44,0-.03.09-.39.27-1.09.18-.7.4-1.57.65-2.62.25-1.04.52-2.11.8-3.21.28-1.09.52-2.05.73-2.87.08-.28.36-.53.84-.75.48-.22.9-.33,1.26-.33s.66.11.92.34c.25.23.38.54.38.92,0,.25-.05.62-.15,1.11-.1.48-.23,1.03-.38,1.64.54-.71,1.1-1.42,1.7-2.12.6-.7,1.22-1.33,1.87-1.89.65-.56,1.3-1.01,1.95-1.34s1.29-.5,1.93-.5c.94,0,1.58.34,1.91,1.01.33.67.5,1.41.5,2.2,0,.33-.03.66-.08.97-.05.32-.12.64-.21.96-.09.32-.21.69-.36,1.13.48-.71,1.01-1.37,1.59-1.97s1.19-1.08,1.85-1.43c.66-.36,1.36-.53,2.1-.53.99,0,1.68.3,2.06.9.38.6.57,1.25.57,1.97,0,.66-.11,1.36-.32,2.08-.22.73-.43,1.41-.65,2.06-.22.65-.32,1.2-.32,1.66,0,.25.06.49.19.71.13.22.38.33.76.33.69,0,1.35-.32,1.99-.96.64-.64,1.23-1.42,1.78-2.35.55-.93,1.01-1.81,1.39-2.66l.65.8c-.41,1.04-.94,2.11-1.59,3.19-.65,1.08-1.41,1.99-2.27,2.71-.87.73-1.86,1.09-2.98,1.09Z"/>
    <path d="M165.14,49.41c-1.63,0-2.88-.44-3.76-1.32-.88-.88-1.32-1.98-1.32-3.31,0-1.12.29-2.31.86-3.57.57-1.26,1.34-2.45,2.31-3.55.97-1.11,2.04-2.01,3.21-2.69,1.17-.69,2.34-1.03,3.52-1.03.66,0,1.29.17,1.89.52.6.34.9,1.03.9,2.04s-.28,1.87-.84,2.71c-.56.84-1.31,1.59-2.25,2.25-.94.66-1.98,1.2-3.11,1.62-1.13.42-2.27.69-3.42.82-.03.1-.04.21-.06.33-.01.11-.02.3-.02.55,0,.13.02.35.06.67s.15.66.32,1.01c.18.36.47.66.88.92.41.25.97.38,1.68.38,1.07,0,2.15-.3,3.23-.9,1.08-.6,2.1-1.39,3.06-2.39.96-.99,1.75-2.1,2.39-3.32l.76.61c-.69,1.53-1.57,2.87-2.66,4.01-1.08,1.15-2.28,2.04-3.59,2.67s-2.66.96-4.03.96ZM163.54,42.49c.66-.08,1.4-.31,2.22-.69.81-.38,1.6-.87,2.35-1.45.75-.59,1.37-1.23,1.85-1.93.48-.7.73-1.41.73-2.12,0-.28-.05-.47-.15-.57-.1-.1-.27-.15-.5-.15-.59,0-1.2.21-1.83.63-.64.42-1.26.97-1.87,1.64s-1.16,1.42-1.64,2.24-.87,1.62-1.15,2.41Z"/>
    <path d="M168.62,58.43c-.74,0-1.32-.21-1.76-.63-.43-.42-.65-.96-.65-1.62,0-.99.46-2.01,1.38-3.06.92-1.04,2.09-2,3.52-2.87.43-.23.87-.45,1.3-.67.43-.22.88-.42,1.34-.59.43-1.04.83-2.22,1.2-3.51.37-1.3.69-2.71.97-4.24-.2.36-.43.71-.67,1.07-.24.36-.46.73-.67,1.11l-.65-1.03c.46-.87.87-1.76,1.22-2.69.36-.93.7-1.8,1.03-2.6s.67-1.46,1.03-1.97c.36-.51.78-.76,1.26-.76.36,0,.64.13.86.4.22.27.32.61.32,1.01,0,.28-.06.8-.19,1.55-.13.75-.31,1.67-.53,2.77-.23,1.09-.52,2.28-.86,3.55-.34,1.27-.73,2.56-1.17,3.86.74-.41,1.46-.85,2.16-1.34.7-.48,1.4-1.1,2.1-1.85.7-.75,1.41-1.73,2.12-2.92l.69.46c-.79,1.63-1.63,2.89-2.52,3.78s-1.78,1.59-2.66,2.08c-.88.5-1.71,1-2.5,1.51-.56,1.53-1.23,3-2.01,4.41-.78,1.41-1.64,2.57-2.6,3.46-.96.89-1.98,1.34-3.08,1.34ZM168.2,56.59c.46,0,1.12-.47,1.99-1.41.87-.94,1.76-2.34,2.67-4.2-1.71.87-2.99,1.74-3.84,2.62s-1.28,1.66-1.28,2.35c0,.25.04.43.13.52.09.09.2.13.32.13ZM179.05,31.52c-.48,0-.92-.12-1.32-.36-.4-.24-.59-.6-.59-1.09,0-.43.17-.82.5-1.17.33-.34.74-.62,1.22-.82.48-.2.96-.31,1.41-.31.43,0,.8.11,1.11.32.31.22.46.55.46,1.01,0,.64-.28,1.2-.84,1.68-.56.48-1.21.73-1.95.73Z"/>
    <path d="M185.43,48.95c-1.17,0-2.04-.35-2.6-1.05s-.84-1.56-.84-2.58c0-1.32.24-2.56.71-3.71s1.07-2.18,1.8-3.11,1.51-1.73,2.35-2.39c.84-.66,1.64-1.17,2.39-1.53.75-.36,1.37-.53,1.85-.53.13,0,.31.03.53.08.23.05.39.18.5.38.08-.05.16-.09.25-.11.09-.03.18-.04.29-.04.71,0,1.18.2,1.39.61.22.41.32.85.32,1.34,0,.43-.12.93-.36,1.49-.24.56-.48,1.18-.73,1.85-.24.67-.36,1.45-.36,2.31,0,.46.13.81.4,1.05.27.24.58.36.94.36.99,0,1.81-.22,2.45-.67.64-.45,1.16-1.04,1.57-1.78.41-.74.75-1.55,1.03-2.43s.55-1.75.8-2.62c-.23-.28-.34-.6-.34-.96,0-.56.11-1.05.34-1.47.23-.42.49-.75.78-.99.29-.24.53-.36.71-.36.41,0,.65.15.73.46.08.31.11.55.11.73,0,.13-.07.36-.21.69-.14.33-.21.56-.21.69,0,.25.21.52.63.78.42.27.9.58,1.43.94.53.36,1.01.81,1.43,1.36.42.55.63,1.23.63,2.04,0,.76-.15,1.53-.46,2.29-.31.76-.61,1.48-.92,2.14-.31.66-.46,1.24-.46,1.72,0,.38.1.63.29.75.19.11.41.17.67.17.59,0,1.2-.18,1.85-.55s1.28-.85,1.89-1.43c.61-.58,1.16-1.2,1.64-1.85.48-.65.84-1.24,1.07-1.78l.76.54c-.51,1.1-1.18,2.18-2.03,3.25-.84,1.07-1.79,1.96-2.85,2.67s-2.16,1.07-3.31,1.07c-.94,0-1.71-.25-2.31-.76-.6-.51-.9-1.16-.9-1.95,0-.74.17-1.51.5-2.33s.66-1.61.99-2.37c.33-.76.5-1.45.5-2.06,0-.66-.22-1.2-.65-1.62-.43-.42-.89-.76-1.38-1.01-.31.92-.64,1.86-1.01,2.83-.37.97-.82,1.85-1.36,2.66-.53.8-1.21,1.45-2.02,1.95-.82.5-1.83.75-3.06.75-.33,0-.71-.05-1.13-.15s-.77-.2-1.05-.31c-.69,1.35-1.59,2.45-2.69,3.3-1.11.85-2.21,1.28-3.31,1.28ZM186.16,47.04c.33,0,.75-.17,1.24-.5s.99-.77,1.49-1.32c.5-.55.88-1.13,1.17-1.74-.54-.71-.8-1.78-.8-3.21,0-.31.04-.71.13-1.22.09-.51.22-1.04.38-1.59.17-.55.36-1.01.59-1.39-.51.48-1.03,1.03-1.55,1.62-.52.6-1.01,1.22-1.47,1.87-.46.65-.87,1.3-1.22,1.95-.36.65-.64,1.29-.84,1.91-.2.62-.31,1.22-.31,1.78,0,.69.11,1.17.32,1.43.22.27.5.4.86.4Z"/>
    <path d="M215.35,49.41c-1.63,0-2.88-.44-3.76-1.32-.88-.88-1.32-1.98-1.32-3.31,0-1.12.29-2.31.86-3.57.57-1.26,1.34-2.45,2.31-3.55.97-1.11,2.04-2.01,3.21-2.69,1.17-.69,2.34-1.03,3.52-1.03.66,0,1.29.17,1.89.52.6.34.9,1.03.9,2.04s-.28,1.87-.84,2.71c-.56.84-1.31,1.59-2.25,2.25-.94.66-1.98,1.2-3.11,1.62-1.13.42-2.27.69-3.42.82-.03.1-.04.21-.06.33-.01.11-.02.3-.02.55,0,.13.02.35.06.67s.15.66.32,1.01c.18.36.47.66.88.92.41.25.97.38,1.68.38,1.07,0,2.15-.3,3.23-.9,1.08-.6,2.1-1.39,3.06-2.39.96-.99,1.75-2.1,2.39-3.32l.76.61c-.69,1.53-1.57,2.87-2.66,4.01-1.08,1.15-2.28,2.04-3.59,2.67s-2.66.96-4.03.96ZM213.74,42.49c.66-.08,1.4-.31,2.22-.69.81-.38,1.6-.87,2.35-1.45.75-.59,1.37-1.23,1.85-1.93.48-.7.73-1.41.73-2.12,0-.28-.05-.47-.15-.57-.1-.1-.27-.15-.5-.15-.59,0-1.2.21-1.83.63-.64.42-1.26.97-1.87,1.64s-1.16,1.42-1.64,2.24-.87,1.62-1.15,2.41Z"/>
    <path d="M228.42,49.67c-1.27,0-2.3-.26-3.08-.78-.78-.52-1.33-1.18-1.66-1.99-.33-.8-.5-1.62-.5-2.46,0-.74.1-1.31.31-1.72.2-.41.46-.71.76-.9s.59-.34.86-.44.46-.22.59-.34c.64-.66,1.29-1.43,1.97-2.31.67-.88,1.25-1.85,1.74-2.92v-.38c0-1.02.17-1.74.52-2.16.34-.42.75-.63,1.2-.63.31,0,.53.08.67.23.14.15.22.33.25.53,0,.15-.03.33-.1.54-.06.2-.1.48-.1.84,0,.76.18,1.64.55,2.62.37.98.74,2.02,1.11,3.11.37,1.1.55,2.22.55,3.36,0,.31-.01.59-.04.84-.03.25-.06.5-.11.73.79-.2,1.57-.64,2.33-1.32.76-.67,1.49-1.67,2.18-3l.46.34c-.48,1.45-1.18,2.62-2.1,3.5s-1.99,1.42-3.21,1.62c-.41,1.04-1.08,1.82-2.01,2.33-.93.51-1.98.76-3.15.76ZM228.15,47.99c.51,0,.98-.13,1.41-.38.43-.25.78-.62,1.03-1.11-1.04-.23-1.99-.64-2.83-1.22-.84-.59-1.49-1.18-1.95-1.8-.36.08-.53.42-.53,1.03,0,.84.24,1.63.73,2.37.48.74,1.2,1.11,2.14,1.11ZM230.9,45.36c.05-.18.08-.39.1-.63.01-.24.02-.43.02-.55-.03-1.15-.18-2.28-.46-3.4-.28-1.12-.56-2.27-.84-3.44-.46.79-.99,1.64-1.6,2.56s-1.18,1.66-1.72,2.22c.41.69,1.01,1.34,1.8,1.95s1.69,1.04,2.71,1.3Z"/>
    <path d="M267.28,48.91c-.99,0-1.73-.29-2.22-.88-.48-.59-.73-1.29-.73-2.1,0-.59.09-1.17.27-1.76.18-.59.36-1.17.54-1.74.18-.57.27-1.09.27-1.55,0-.43-.08-.73-.25-.9-.17-.17-.38-.25-.63-.25-.59,0-1.27.45-2.04,1.34-.78.89-1.74,2.19-2.88,3.9-.41.61-.79,1.25-1.15,1.93-.36.67-.68,1.24-.96,1.7-.23,0-.53-.04-.9-.11-.37-.08-.69-.19-.97-.33-.28-.14-.42-.33-.42-.55s.13-.67.38-1.34c.25-.66.55-1.43.88-2.31s.62-1.74.88-2.6c.25-.85.38-1.57.38-2.16,0-.36-.06-.64-.19-.84-.13-.2-.33-.31-.61-.31-.54,0-1.18.32-1.93.96-.75.64-1.54,1.47-2.37,2.5-.83,1.03-1.6,2.18-2.33,3.44-.73,1.26-1.32,2.53-1.78,3.8-.28,0-.62-.06-1.03-.17-.41-.11-.76-.25-1.07-.42-.31-.17-.46-.31-.46-.44,0-.03.09-.39.27-1.09.18-.7.4-1.57.65-2.62.25-1.04.52-2.11.8-3.21.28-1.09.52-2.05.73-2.87.08-.28.36-.53.84-.75.48-.22.9-.33,1.26-.33s.66.11.92.34.38.54.38.92c0,.25-.05.62-.15,1.11-.1.48-.23,1.03-.38,1.64.54-.71,1.1-1.42,1.7-2.12s1.22-1.33,1.87-1.89c.65-.56,1.3-1.01,1.95-1.34s1.29-.5,1.93-.5c.94,0,1.58.34,1.91,1.01s.5,1.41.5,2.2c0,.33-.03.66-.08.97-.05.32-.12.64-.21.96-.09.32-.21.69-.36,1.13.48-.71,1.01-1.37,1.58-1.97s1.19-1.08,1.85-1.43c.66-.36,1.36-.53,2.1-.53.99,0,1.68.3,2.06.9.38.6.57,1.25.57,1.97,0,.66-.11,1.36-.33,2.08-.22.73-.43,1.41-.65,2.06-.22.65-.33,1.2-.33,1.66,0,.25.06.49.19.71.13.22.38.33.76.33.69,0,1.35-.32,1.99-.96s1.23-1.42,1.78-2.35c.55-.93,1.01-1.81,1.39-2.66l.65.8c-.41,1.04-.94,2.11-1.59,3.19s-1.41,1.99-2.27,2.71c-.87.73-1.86,1.09-2.98,1.09Z"/>
    <path d="M275.03,48.95c-1.15,0-1.93-.38-2.35-1.13-.42-.75-.63-1.57-.63-2.46,0-.81.13-1.65.38-2.5.25-.85.6-1.65,1.05-2.39.45-.74.94-1.33,1.49-1.78.55-.45,1.1-.67,1.66-.67.18,0,.39.03.63.1.24.06.41.16.52.29-.31.38-.62.85-.94,1.41s-.61,1.15-.88,1.78c-.27.62-.48,1.25-.63,1.89-.15.64-.23,1.22-.23,1.76s.1.93.29,1.26c.19.33.53.5,1.01.5s1.06-.27,1.74-.82c.67-.55,1.32-1.18,1.93-1.89-.82-.74-1.4-1.55-1.76-2.43-.36-.88-.54-1.94-.54-3.19,0-.54.13-1.15.4-1.83.27-.69.7-1.29,1.3-1.8.6-.51,1.41-.76,2.43-.76,1.1,0,1.87.31,2.31.92.45.61.67,1.34.67,2.18,0,.94-.25,2-.75,3.17-.5,1.17-1.09,2.28-1.78,3.32.31.15.66.23,1.07.23.38,0,.84-.09,1.38-.27.54-.18,1.06-.48,1.57-.9.51-.42.92-.99,1.22-1.7l.69.5c-.56,1.3-1.31,2.25-2.24,2.85-.93.6-1.84.9-2.73.9-.33,0-.66-.03-.99-.1s-.64-.15-.92-.25c-.87,1.02-1.86,1.91-2.98,2.67-1.12.76-2.25,1.15-3.4,1.15ZM281.07,43.06c.61-.89,1.13-1.85,1.57-2.87.43-1.02.65-1.96.65-2.83,0-.59-.09-1.01-.27-1.28-.18-.27-.45-.4-.8-.4-.48,0-.98.34-1.49,1.03-.51.69-.76,1.55-.76,2.6,0,.54.1,1.18.29,1.95.19.76.46,1.36.82,1.8Z"/>
    <path d="M306.71,48.91c-.99,0-1.73-.29-2.22-.88-.48-.59-.73-1.29-.73-2.1,0-.59.09-1.17.27-1.76.18-.59.36-1.17.54-1.74.18-.57.27-1.09.27-1.55,0-.43-.08-.73-.25-.9-.17-.17-.38-.25-.63-.25-.59,0-1.27.45-2.04,1.34-.78.89-1.74,2.19-2.88,3.9-.41.61-.79,1.25-1.15,1.93-.36.67-.67,1.24-.96,1.7-.23,0-.53-.04-.9-.11-.37-.08-.69-.19-.97-.33s-.42-.33-.42-.55.13-.67.38-1.34c.25-.66.55-1.43.88-2.31s.62-1.74.88-2.6c.25-.85.38-1.57.38-2.16,0-.36-.06-.64-.19-.84-.13-.2-.33-.31-.61-.31-.54,0-1.18.32-1.93.96-.75.64-1.54,1.47-2.37,2.5-.83,1.03-1.6,2.18-2.33,3.44-.73,1.26-1.32,2.53-1.78,3.8-.28,0-.62-.06-1.03-.17-.41-.11-.76-.25-1.07-.42-.31-.17-.46-.31-.46-.44,0-.03.09-.39.27-1.09.18-.7.4-1.57.65-2.62.25-1.04.52-2.11.8-3.21.28-1.09.52-2.05.73-2.87.08-.28.36-.53.84-.75.48-.22.9-.33,1.26-.33s.66.11.92.34c.25.23.38.54.38.92,0,.25-.05.62-.15,1.11-.1.48-.23,1.03-.38,1.64.54-.71,1.1-1.42,1.7-2.12s1.22-1.33,1.87-1.89c.65-.56,1.3-1.01,1.95-1.34s1.29-.5,1.93-.5c.94,0,1.58.34,1.91,1.01s.5,1.41.5,2.2c0,.33-.03.66-.08.97-.05.32-.12.64-.21.96-.09.32-.21.69-.36,1.13.48-.71,1.01-1.37,1.59-1.97.57-.6,1.19-1.08,1.85-1.43.66-.36,1.36-.53,2.1-.53.99,0,1.68.3,2.06.9.38.6.57,1.25.57,1.97,0,.66-.11,1.36-.33,2.08-.22.73-.43,1.41-.65,2.06-.22.65-.32,1.2-.32,1.66,0,.25.06.49.19.71.13.22.38.33.76.33.69,0,1.35-.32,1.99-.96s1.23-1.42,1.78-2.35c.55-.93,1.01-1.81,1.39-2.66l.65.8c-.41,1.04-.94,2.11-1.59,3.19s-1.41,1.99-2.27,2.71c-.87.73-1.86,1.09-2.98,1.09Z"/>
    <path d="M316.38,49.41c-1.63,0-2.88-.44-3.76-1.32s-1.32-1.98-1.32-3.31c0-1.12.29-2.31.86-3.57s1.34-2.45,2.31-3.55,2.04-2.01,3.21-2.69c1.17-.69,2.34-1.03,3.52-1.03.66,0,1.29.17,1.89.52.6.34.9,1.03.9,2.04s-.28,1.87-.84,2.71c-.56.84-1.31,1.59-2.25,2.25-.94.66-1.98,1.2-3.11,1.62-1.13.42-2.27.69-3.42.82-.03.1-.04.21-.06.33s-.02.3-.02.55c0,.13.02.35.06.67.04.32.15.66.33,1.01.18.36.47.66.88.92.41.25.97.38,1.68.38,1.07,0,2.15-.3,3.23-.9,1.08-.6,2.1-1.39,3.06-2.39.96-.99,1.75-2.1,2.39-3.32l.76.61c-.69,1.53-1.57,2.87-2.66,4.01-1.08,1.15-2.28,2.04-3.59,2.67-1.31.64-2.66.96-4.03.96ZM314.77,42.49c.66-.08,1.4-.31,2.22-.69.81-.38,1.6-.87,2.35-1.45.75-.59,1.37-1.23,1.85-1.93.48-.7.73-1.41.73-2.12,0-.28-.05-.47-.15-.57-.1-.1-.27-.15-.5-.15-.59,0-1.2.21-1.83.63-.64.42-1.26.97-1.87,1.64s-1.16,1.42-1.64,2.24c-.48.82-.87,1.62-1.15,2.41Z"/>
    <path d="M337.85,48.49c-.99,0-1.75-.25-2.27-.75-.52-.5-.78-1.13-.78-1.89,0-.51.09-1.05.27-1.62.18-.57.36-1.15.53-1.74.18-.59.27-1.15.27-1.68s-.13-.95-.4-1.17-.58-.33-.94-.33c-.76,0-1.55.31-2.35.94-.8.62-1.58,1.41-2.33,2.35-.75.94-1.46,1.92-2.12,2.94s-1.24,1.94-1.72,2.75c-.48,0-.94-.08-1.38-.25-.43-.17-.8-.45-1.11-.86.03-.13.17-.52.44-1.17s.57-1.43.9-2.33c.33-.9.62-1.85.88-2.85.25-.99.38-1.9.38-2.71.18-.2.45-.41.82-.61.37-.2.76-.31,1.17-.31.89,0,1.34.38,1.34,1.15,0,.31-.06.76-.17,1.36-.12.6-.27,1.28-.48,2.04.66-.89,1.39-1.73,2.18-2.52s1.61-1.43,2.46-1.93c.85-.5,1.71-.75,2.58-.75,1.09,0,1.9.37,2.43,1.11.52.74.78,1.55.78,2.45,0,.76-.13,1.48-.38,2.14s-.5,1.29-.75,1.87-.36,1.16-.36,1.72c0,.41.1.69.29.86.19.17.4.25.63.25.61,0,1.25-.29,1.91-.88.66-.59,1.29-1.33,1.89-2.24.6-.9,1.13-1.82,1.58-2.73l.65.54c-.53,1.25-1.14,2.39-1.81,3.42-.67,1.03-1.43,1.86-2.25,2.48-.83.62-1.75.94-2.77.94Z"/>
    <path d="M346.52,49.48c-1.12,0-2.03-.33-2.71-.99-.69-.66-1.03-1.67-1.03-3.02,0-1.04.2-2.34.59-3.9.39-1.55.9-3.16,1.51-4.81-.18-.05-.39-.1-.63-.13s-.48-.11-.71-.21v-1.18c.41.05.75.09,1.01.12.27.03.54.05.82.08.54-1.35,1.11-2.66,1.74-3.92.62-1.26,1.25-2.39,1.87-3.38s1.22-1.78,1.78-2.35c.56-.57,1.06-.86,1.49-.86.25,0,.5.1.73.29.23.19.34.46.34.82,0,.51-.26,1.24-.78,2.18-.52.94-1.17,2.04-1.93,3.31-.76,1.26-1.5,2.6-2.22,4.03h1.18c1.12,0,2.13-.02,3.04-.06s1.83-.11,2.77-.21v1.26c-1.4.13-2.69.23-3.86.31s-2.29.13-3.36.15h-.46c-.53,1.25-1,2.53-1.39,3.84-.39,1.31-.59,2.59-.59,3.84,0,1.04.17,1.78.5,2.22.33.43.85.65,1.57.65,1.27,0,2.58-.58,3.92-1.74,1.34-1.16,2.5-2.73,3.5-4.72l.54.38c-.66,1.5-1.48,2.87-2.46,4.09s-2.04,2.18-3.19,2.88c-1.15.7-2.33,1.05-3.55,1.05Z"/>
    <path d="M356.57,48.95c-1.15,0-1.93-.38-2.35-1.13s-.63-1.57-.63-2.46c0-.81.13-1.65.38-2.5.25-.85.6-1.65,1.05-2.39.45-.74.94-1.33,1.49-1.78.55-.45,1.1-.67,1.66-.67.18,0,.39.03.63.1s.41.16.52.29c-.31.38-.62.85-.94,1.41-.32.56-.61,1.15-.88,1.78-.27.62-.48,1.25-.63,1.89-.15.64-.23,1.22-.23,1.76s.09.93.29,1.26.53.5,1.01.5,1.06-.27,1.74-.82c.67-.55,1.32-1.18,1.93-1.89-.82-.74-1.4-1.55-1.76-2.43s-.53-1.94-.53-3.19c0-.54.13-1.15.4-1.83s.7-1.29,1.3-1.8c.6-.51,1.41-.76,2.43-.76,1.09,0,1.87.31,2.31.92s.67,1.34.67,2.18c0,.94-.25,2-.75,3.17-.5,1.17-1.09,2.28-1.78,3.32.31.15.66.23,1.07.23.38,0,.84-.09,1.38-.27.54-.18,1.06-.48,1.57-.9.51-.42.92-.99,1.22-1.7l.69.5c-.56,1.3-1.31,2.25-2.24,2.85s-1.84.9-2.73.9c-.33,0-.66-.03-.99-.1-.33-.06-.64-.15-.92-.25-.87,1.02-1.86,1.91-2.98,2.67-1.12.76-2.25,1.15-3.4,1.15ZM362.61,43.06c.61-.89,1.13-1.85,1.57-2.87.43-1.02.65-1.96.65-2.83,0-.59-.09-1.01-.27-1.28-.18-.27-.45-.4-.8-.4-.48,0-.98.34-1.49,1.03-.51.69-.76,1.55-.76,2.6,0,.54.1,1.18.29,1.95.19.76.46,1.36.82,1.8Z"/>
    <path d="M372.73,49.67c-1.27,0-2.3-.26-3.08-.78s-1.33-1.18-1.66-1.99c-.33-.8-.5-1.62-.5-2.46,0-.74.1-1.31.31-1.72.21-.41.46-.71.76-.9s.59-.34.86-.44.46-.22.59-.34c.64-.66,1.29-1.43,1.97-2.31.67-.88,1.25-1.85,1.74-2.92v-.38c0-1.02.17-1.74.52-2.16.34-.42.75-.63,1.2-.63.31,0,.53.08.67.23.14.15.22.33.25.53,0,.15-.03.33-.1.54-.06.2-.1.48-.1.84,0,.76.18,1.64.55,2.62.37.98.74,2.02,1.11,3.11.37,1.1.55,2.22.55,3.36,0,.31-.01.59-.04.84-.03.25-.06.5-.12.73.79-.2,1.57-.64,2.33-1.32.76-.67,1.49-1.67,2.18-3l.46.34c-.48,1.45-1.18,2.62-2.1,3.5s-1.99,1.42-3.21,1.62c-.41,1.04-1.08,1.82-2.01,2.33-.93.51-1.98.76-3.15.76ZM372.47,47.99c.51,0,.98-.13,1.41-.38.43-.25.78-.62,1.03-1.11-1.04-.23-1.99-.64-2.83-1.22-.84-.59-1.49-1.18-1.95-1.8-.36.08-.54.42-.54,1.03,0,.84.24,1.63.73,2.37.48.74,1.2,1.11,2.14,1.11ZM375.22,45.36c.05-.18.08-.39.1-.63.01-.24.02-.43.02-.55-.03-1.15-.18-2.28-.46-3.4s-.56-2.27-.84-3.44c-.46.79-.99,1.64-1.6,2.56s-1.18,1.66-1.72,2.22c.41.69,1.01,1.34,1.8,1.95.79.61,1.69,1.04,2.71,1.3Z"/>
    <path d="M71.51,94.76c-.99,0-1.73-.29-2.22-.88-.48-.59-.73-1.29-.73-2.1,0-.59.09-1.17.27-1.76.18-.59.36-1.17.54-1.74.18-.57.27-1.09.27-1.55,0-.43-.08-.73-.25-.9-.17-.17-.38-.25-.63-.25-.59,0-1.27.45-2.04,1.34-.78.89-1.74,2.19-2.88,3.9-.41.61-.79,1.25-1.15,1.93-.36.67-.68,1.24-.96,1.7-.23,0-.53-.04-.9-.11-.37-.08-.69-.19-.97-.33-.28-.14-.42-.33-.42-.55s.13-.67.38-1.34c.25-.66.55-1.43.88-2.31.33-.88.62-1.74.88-2.6.25-.85.38-1.57.38-2.16,0-.36-.06-.64-.19-.84-.13-.2-.33-.31-.61-.31-.54,0-1.18.32-1.93.96-.75.64-1.54,1.47-2.37,2.5-.83,1.03-1.6,2.18-2.33,3.44s-1.32,2.53-1.78,3.8c-.28,0-.62-.06-1.03-.17-.41-.11-.76-.25-1.07-.42-.31-.17-.46-.31-.46-.44,0-.03.09-.39.27-1.09.18-.7.4-1.57.65-2.62.25-1.04.52-2.11.8-3.21.28-1.09.52-2.05.73-2.87.08-.28.36-.53.84-.75.48-.22.9-.33,1.26-.33s.66.11.92.34c.25.23.38.54.38.92,0,.25-.05.62-.15,1.11-.1.48-.23,1.03-.38,1.64.54-.71,1.1-1.42,1.7-2.12.6-.7,1.22-1.33,1.87-1.89.65-.56,1.3-1.01,1.95-1.34s1.29-.5,1.93-.5c.94,0,1.58.34,1.91,1.01.33.67.5,1.41.5,2.2,0,.33-.03.66-.08.97-.05.32-.12.64-.21.96-.09.32-.21.69-.36,1.13.48-.71,1.01-1.37,1.59-1.97s1.19-1.08,1.85-1.43c.66-.36,1.36-.53,2.1-.53.99,0,1.68.3,2.06.9.38.6.57,1.25.57,1.97,0,.66-.11,1.36-.32,2.08-.22.73-.43,1.41-.65,2.06-.22.65-.32,1.2-.32,1.66,0,.25.06.49.19.71.13.22.38.33.76.33.69,0,1.35-.32,1.99-.96.64-.64,1.23-1.42,1.78-2.35.55-.93,1.01-1.81,1.39-2.66l.65.8c-.41,1.04-.94,2.11-1.59,3.19-.65,1.08-1.41,1.99-2.27,2.71-.87.73-1.86,1.09-2.98,1.09Z"/>
    <path d="M81.18,95.26c-1.63,0-2.88-.44-3.76-1.32-.88-.88-1.32-1.98-1.32-3.31,0-1.12.29-2.31.86-3.57.57-1.26,1.34-2.45,2.31-3.55.97-1.11,2.04-2.01,3.21-2.69,1.17-.69,2.34-1.03,3.52-1.03.66,0,1.29.17,1.89.52.6.34.9,1.03.9,2.04s-.28,1.87-.84,2.71c-.56.84-1.31,1.59-2.25,2.25-.94.66-1.98,1.2-3.11,1.62-1.13.42-2.27.69-3.42.82-.03.1-.04.21-.06.33-.01.11-.02.3-.02.55,0,.13.02.35.06.67s.15.66.32,1.01c.18.36.47.66.88.92.41.25.97.38,1.68.38,1.07,0,2.15-.3,3.23-.9,1.08-.6,2.1-1.39,3.06-2.39.96-.99,1.75-2.1,2.39-3.32l.76.61c-.69,1.53-1.57,2.87-2.66,4.01-1.08,1.15-2.28,2.04-3.59,2.67s-2.66.96-4.03.96ZM79.57,88.34c.66-.08,1.4-.31,2.22-.69.81-.38,1.6-.87,2.35-1.45.75-.59,1.37-1.23,1.85-1.93.48-.7.73-1.41.73-2.12,0-.28-.05-.47-.15-.57-.1-.1-.27-.15-.5-.15-.59,0-1.2.21-1.83.63-.64.42-1.26.97-1.87,1.64s-1.16,1.42-1.64,2.24-.87,1.62-1.15,2.41Z"/>
    <path d="M96.84,94.57c-.94,0-1.71-.25-2.29-.75-.59-.5-.88-1.17-.88-2.01,0-.71.18-1.48.53-2.29.36-.82.72-1.62,1.09-2.41.37-.79.55-1.49.55-2.1s-.19-1.08-.57-1.47c-.38-.39-.83-.72-1.34-.97-.56,1.4-1.19,2.76-1.89,4.07-.7,1.31-1.27,2.34-1.7,3.08l-.57-1.11c.36-.66.83-1.61,1.41-2.83s1.15-2.58,1.68-4.09c-.26-.25-.38-.6-.38-1.03,0-.66.2-1.29.61-1.87.41-.59.8-.88,1.18-.88.31,0,.53.17.67.52s.21.58.21.71-.06.36-.17.69c-.11.33-.2.57-.25.73.02.28.25.55.67.82.42.27.9.58,1.43.94s1.01.8,1.41,1.34c.41.54.61,1.21.61,2.03,0,.74-.17,1.49-.5,2.25-.33.76-.66,1.48-.99,2.14-.33.66-.5,1.24-.5,1.72,0,.36.1.59.29.71s.41.17.67.17c.61,0,1.25-.18,1.91-.55.66-.37,1.31-.85,1.95-1.43.64-.58,1.2-1.2,1.68-1.85s.85-1.24,1.11-1.78l.92.69c-.48,1.09-1.18,2.17-2.1,3.23-.92,1.06-1.94,1.92-3.06,2.6-1.12.67-2.25,1.01-3.4,1.01Z"/>
    <path d="M108.08,95.26c-1.63,0-2.88-.44-3.76-1.32-.88-.88-1.32-1.98-1.32-3.31,0-1.12.29-2.31.86-3.57.57-1.26,1.34-2.45,2.31-3.55.97-1.11,2.04-2.01,3.21-2.69,1.17-.69,2.34-1.03,3.52-1.03.66,0,1.29.17,1.89.52.6.34.9,1.03.9,2.04s-.28,1.87-.84,2.71c-.56.84-1.31,1.59-2.25,2.25-.94.66-1.98,1.2-3.11,1.62-1.13.42-2.27.69-3.42.82-.03.1-.04.21-.06.33-.01.11-.02.3-.02.55,0,.13.02.35.06.67s.15.66.32,1.01c.18.36.47.66.88.92.41.25.97.38,1.68.38,1.07,0,2.15-.3,3.23-.9,1.08-.6,2.1-1.39,3.06-2.39.96-.99,1.75-2.1,2.39-3.32l.76.61c-.69,1.53-1.57,2.87-2.66,4.01-1.08,1.15-2.28,2.04-3.59,2.67s-2.66.96-4.03.96ZM106.47,88.34c.66-.08,1.4-.31,2.22-.69.81-.38,1.6-.87,2.35-1.45.75-.59,1.37-1.23,1.85-1.93.48-.7.73-1.41.73-2.12,0-.28-.05-.47-.15-.57-.1-.1-.27-.15-.5-.15-.59,0-1.2.21-1.83.63-.64.42-1.26.97-1.87,1.64s-1.16,1.42-1.64,2.24-.87,1.62-1.15,2.41Z"/>
    <path d="M120.99,95.72c-1.33,0-2.41-.41-3.27-1.24-.85-.83-1.28-2.09-1.28-3.8,0-1.25.24-2.47.73-3.67.48-1.2,1.13-2.27,1.95-3.23.81-.96,1.73-1.71,2.73-2.27s2.03-.84,3.08-.84,1.84.27,2.31.8c.47.54.71,1.16.71,1.87s-.17,1.41-.52,2.08c-.34.68-.81,1.01-1.39,1.01-.48,0-.88-.24-1.18-.73.25-.18.52-.51.8-.99.28-.48.42-1.11.42-1.87,0-.2-.05-.36-.15-.48-.1-.11-.29-.17-.57-.17-.64,0-1.31.29-2.01.86-.7.57-1.35,1.31-1.95,2.22s-1.08,1.86-1.45,2.87c-.37,1.01-.55,1.93-.55,2.77,0,.71.18,1.37.55,1.97.37.6,1.09.9,2.16.9.97,0,1.97-.28,3.02-.84,1.04-.56,2.03-1.34,2.94-2.35.92-1.01,1.66-2.21,2.22-3.61l.76.69c-.61,1.55-1.46,2.94-2.54,4.15-1.08,1.21-2.28,2.16-3.59,2.87-1.31.7-2.62,1.05-3.92,1.05Z"/>
    <path d="M133.83,95.26c-1.63,0-2.88-.44-3.76-1.32-.88-.88-1.32-1.98-1.32-3.31,0-1.12.29-2.31.86-3.57.57-1.26,1.34-2.45,2.31-3.55.97-1.11,2.04-2.01,3.21-2.69,1.17-.69,2.34-1.03,3.52-1.03.66,0,1.29.17,1.89.52.6.34.9,1.03.9,2.04s-.28,1.87-.84,2.71c-.56.84-1.31,1.59-2.25,2.25-.94.66-1.98,1.2-3.11,1.62-1.13.42-2.27.69-3.42.82-.03.1-.04.21-.06.33-.01.11-.02.3-.02.55,0,.13.02.35.06.67s.15.66.32,1.01c.18.36.47.66.88.92.41.25.97.38,1.68.38,1.07,0,2.15-.3,3.23-.9,1.08-.6,2.1-1.39,3.06-2.39.96-.99,1.75-2.1,2.39-3.32l.76.61c-.69,1.53-1.57,2.87-2.66,4.01-1.08,1.15-2.28,2.04-3.59,2.67s-2.66.96-4.03.96ZM132.23,88.34c.66-.08,1.4-.31,2.22-.69.81-.38,1.6-.87,2.35-1.45.75-.59,1.37-1.23,1.85-1.93.48-.7.73-1.41.73-2.12,0-.28-.05-.47-.15-.57-.1-.1-.27-.15-.5-.15-.59,0-1.2.21-1.83.63-.64.42-1.26.97-1.87,1.64s-1.16,1.42-1.64,2.24-.87,1.62-1.15,2.41Z"/>
    <path d="M155.3,94.34c-.99,0-1.75-.25-2.27-.75-.52-.5-.78-1.13-.78-1.89,0-.51.09-1.05.27-1.62.18-.57.36-1.15.54-1.74.18-.59.27-1.15.27-1.68s-.13-.95-.4-1.17c-.27-.22-.58-.33-.94-.33-.76,0-1.55.31-2.35.94s-1.58,1.41-2.33,2.35-1.46,1.92-2.12,2.94c-.66,1.02-1.24,1.94-1.72,2.75-.48,0-.94-.08-1.38-.25-.43-.17-.8-.45-1.11-.86.03-.13.17-.52.44-1.17s.57-1.43.9-2.33c.33-.9.62-1.85.88-2.85.25-.99.38-1.9.38-2.71.18-.2.45-.41.82-.61.37-.2.76-.31,1.17-.31.89,0,1.34.38,1.34,1.15,0,.31-.06.76-.17,1.36-.11.6-.27,1.28-.48,2.04.66-.89,1.39-1.73,2.18-2.52s1.61-1.43,2.46-1.93c.85-.5,1.71-.75,2.58-.75,1.1,0,1.9.37,2.43,1.11.52.74.78,1.55.78,2.45,0,.76-.13,1.48-.38,2.14-.25.66-.5,1.29-.75,1.87-.24.59-.36,1.16-.36,1.72,0,.41.1.69.29.86.19.17.4.25.63.25.61,0,1.25-.29,1.91-.88.66-.59,1.29-1.33,1.89-2.24.6-.9,1.13-1.82,1.59-2.73l.65.54c-.54,1.25-1.14,2.39-1.81,3.42-.68,1.03-1.43,1.86-2.25,2.48-.83.62-1.75.94-2.77.94Z"/>
    <path d="M174.9,95.53c-1.27,0-2.3-.26-3.08-.78-.78-.52-1.33-1.18-1.66-1.99-.33-.8-.5-1.62-.5-2.46,0-.74.1-1.31.31-1.72.2-.41.46-.71.76-.9s.59-.34.86-.44.46-.22.59-.34c.64-.66,1.29-1.43,1.97-2.31.67-.88,1.25-1.85,1.74-2.92v-.38c0-1.02.17-1.74.52-2.16.34-.42.75-.63,1.2-.63.31,0,.53.08.67.23.14.15.22.33.25.53,0,.15-.03.33-.1.54-.06.2-.1.48-.1.84,0,.76.18,1.64.55,2.62.37.98.74,2.02,1.11,3.11.37,1.1.55,2.22.55,3.36,0,.31-.01.59-.04.84-.03.25-.06.5-.11.73.79-.2,1.57-.64,2.33-1.32s1.49-1.67,2.18-3l.46.34c-.48,1.45-1.18,2.62-2.1,3.5s-1.99,1.42-3.21,1.62c-.41,1.04-1.08,1.82-2.01,2.33-.93.51-1.98.76-3.15.76ZM174.64,93.84c.51,0,.98-.13,1.41-.38.43-.25.78-.62,1.03-1.11-1.04-.23-1.99-.64-2.83-1.22-.84-.59-1.49-1.18-1.95-1.8-.36.08-.53.42-.53,1.03,0,.84.24,1.63.73,2.37.48.74,1.2,1.11,2.14,1.11ZM177.39,91.21c.05-.18.08-.39.1-.63.01-.24.02-.43.02-.55-.03-1.15-.18-2.28-.46-3.4-.28-1.12-.56-2.27-.84-3.44-.46.79-.99,1.64-1.6,2.56s-1.18,1.66-1.72,2.22c.41.69,1.01,1.34,1.8,1.95s1.69,1.04,2.71,1.3Z"/>
    <path d="M188.28,95.26c-1.63,0-2.88-.44-3.76-1.32-.88-.88-1.32-1.98-1.32-3.31,0-1.12.29-2.31.86-3.57.57-1.26,1.34-2.45,2.31-3.55.97-1.11,2.04-2.01,3.21-2.69,1.17-.69,2.34-1.03,3.52-1.03.66,0,1.29.17,1.89.52.6.34.9,1.03.9,2.04s-.28,1.87-.84,2.71c-.56.84-1.31,1.59-2.25,2.25-.94.66-1.98,1.2-3.11,1.62-1.13.42-2.27.69-3.42.82-.03.1-.04.21-.06.33-.01.11-.02.3-.02.55,0,.13.02.35.06.67s.15.66.32,1.01c.18.36.47.66.88.92.41.25.97.38,1.68.38,1.07,0,2.15-.3,3.23-.9,1.08-.6,2.1-1.39,3.06-2.39.96-.99,1.75-2.1,2.39-3.32l.76.61c-.69,1.53-1.57,2.87-2.66,4.01-1.08,1.15-2.28,2.04-3.59,2.67s-2.66.96-4.03.96ZM186.67,88.34c.66-.08,1.4-.31,2.22-.69.81-.38,1.6-.87,2.35-1.45.75-.59,1.37-1.23,1.85-1.93.48-.7.73-1.41.73-2.12,0-.28-.05-.47-.15-.57-.1-.1-.27-.15-.5-.15-.59,0-1.2.21-1.83.63-.64.42-1.26.97-1.87,1.64s-1.16,1.42-1.64,2.24-.87,1.62-1.15,2.41Z"/>
    <path d="M203.94,94.57c-.94,0-1.71-.25-2.29-.75-.59-.5-.88-1.17-.88-2.01,0-.71.18-1.48.53-2.29.36-.82.72-1.62,1.09-2.41.37-.79.55-1.49.55-2.1s-.19-1.08-.57-1.47c-.38-.39-.83-.72-1.34-.97-.56,1.4-1.19,2.76-1.89,4.07-.7,1.31-1.27,2.34-1.7,3.08l-.57-1.11c.36-.66.83-1.61,1.41-2.83s1.15-2.58,1.68-4.09c-.26-.25-.38-.6-.38-1.03,0-.66.2-1.29.61-1.87.41-.59.8-.88,1.18-.88.31,0,.53.17.67.52s.21.58.21.71-.06.36-.17.69c-.11.33-.2.57-.25.73.02.28.25.55.67.82.42.27.9.58,1.43.94s1.01.8,1.41,1.34c.41.54.61,1.21.61,2.03,0,.74-.17,1.49-.5,2.25-.33.76-.66,1.48-.99,2.14-.33.66-.5,1.24-.5,1.72,0,.36.1.59.29.71s.41.17.67.17c.61,0,1.25-.18,1.91-.55.66-.37,1.31-.85,1.95-1.43.64-.58,1.2-1.2,1.68-1.85s.85-1.24,1.11-1.78l.92.69c-.48,1.09-1.18,2.17-2.1,3.23-.92,1.06-1.94,1.92-3.06,2.6-1.12.67-2.25,1.01-3.4,1.01Z"/>
    <path d="M225,95.72c-1.33,0-2.41-.41-3.27-1.24-.85-.83-1.28-2.09-1.28-3.8,0-1.25.24-2.47.73-3.67.48-1.2,1.13-2.27,1.95-3.23.81-.96,1.73-1.71,2.73-2.27s2.03-.84,3.08-.84,1.84.27,2.31.8c.47.54.71,1.16.71,1.87s-.17,1.41-.52,2.08c-.34.68-.81,1.01-1.39,1.01-.48,0-.88-.24-1.18-.73.25-.18.52-.51.8-.99.28-.48.42-1.11.42-1.87,0-.2-.05-.36-.15-.48-.1-.11-.29-.17-.57-.17-.64,0-1.31.29-2.01.86-.7.57-1.35,1.31-1.95,2.22s-1.08,1.86-1.45,2.87c-.37,1.01-.55,1.93-.55,2.77,0,.71.18,1.37.55,1.97.37.6,1.09.9,2.16.9.97,0,1.97-.28,3.02-.84,1.04-.56,2.03-1.34,2.94-2.35.92-1.01,1.66-2.21,2.22-3.61l.76.69c-.61,1.55-1.46,2.94-2.54,4.15-1.08,1.21-2.28,2.16-3.59,2.87-1.31.7-2.62,1.05-3.92,1.05Z"/>
    <path d="M235.92,94.8c-1.15,0-1.93-.38-2.35-1.13s-.63-1.57-.63-2.46c0-.81.13-1.65.38-2.5.25-.85.6-1.65,1.05-2.39.45-.74.94-1.33,1.49-1.78.55-.45,1.1-.67,1.66-.67.18,0,.39.03.63.1s.41.16.52.29c-.31.38-.62.85-.94,1.41-.32.56-.61,1.15-.88,1.78-.27.62-.48,1.25-.63,1.89-.15.64-.23,1.22-.23,1.76s.1.93.29,1.26c.19.33.53.5,1.01.5s1.06-.27,1.74-.82c.67-.55,1.32-1.18,1.93-1.89-.82-.74-1.4-1.55-1.76-2.43-.36-.88-.54-1.94-.54-3.19,0-.54.13-1.15.4-1.83s.7-1.29,1.3-1.8,1.41-.76,2.43-.76c1.09,0,1.87.31,2.31.92.45.61.67,1.34.67,2.18,0,.94-.25,2-.75,3.17-.5,1.17-1.09,2.28-1.78,3.32.31.15.66.23,1.07.23.38,0,.84-.09,1.38-.27.53-.18,1.06-.48,1.57-.9.51-.42.92-.99,1.22-1.7l.69.5c-.56,1.3-1.31,2.25-2.24,2.85s-1.84.9-2.73.9c-.33,0-.66-.03-.99-.1s-.64-.15-.92-.25c-.87,1.02-1.86,1.91-2.98,2.67-1.12.76-2.25,1.15-3.4,1.15ZM241.96,88.92c.61-.89,1.13-1.85,1.57-2.87.43-1.02.65-1.96.65-2.83,0-.59-.09-1.01-.27-1.28-.18-.27-.45-.4-.8-.4-.48,0-.98.34-1.49,1.03-.51.69-.76,1.55-.76,2.6,0,.54.1,1.18.29,1.95.19.76.46,1.36.82,1.8Z"/>
    <path d="M267.6,94.76c-.99,0-1.73-.29-2.22-.88-.48-.59-.73-1.29-.73-2.1,0-.59.09-1.17.27-1.76.18-.59.36-1.17.54-1.74.18-.57.27-1.09.27-1.55,0-.43-.08-.73-.25-.9-.17-.17-.38-.25-.63-.25-.59,0-1.27.45-2.04,1.34-.78.89-1.74,2.19-2.88,3.9-.41.61-.79,1.25-1.15,1.93-.36.67-.68,1.24-.96,1.7-.23,0-.53-.04-.9-.11-.37-.08-.69-.19-.97-.33-.28-.14-.42-.33-.42-.55s.13-.67.38-1.34c.25-.66.55-1.43.88-2.31s.62-1.74.88-2.6c.25-.85.38-1.57.38-2.16,0-.36-.06-.64-.19-.84-.13-.2-.33-.31-.61-.31-.54,0-1.18.32-1.93.96-.75.64-1.54,1.47-2.37,2.5-.83,1.03-1.6,2.18-2.33,3.44-.73,1.26-1.32,2.53-1.78,3.8-.28,0-.62-.06-1.03-.17-.41-.11-.76-.25-1.07-.42-.31-.17-.46-.31-.46-.44,0-.03.09-.39.27-1.09.18-.7.4-1.57.65-2.62.25-1.04.52-2.11.8-3.21.28-1.09.52-2.05.73-2.87.08-.28.36-.53.84-.75.48-.22.9-.33,1.26-.33s.66.11.92.34.38.54.38.92c0,.25-.05.62-.15,1.11-.1.48-.23,1.03-.38,1.64.54-.71,1.1-1.42,1.7-2.12s1.22-1.33,1.87-1.89c.65-.56,1.3-1.01,1.95-1.34s1.29-.5,1.93-.5c.94,0,1.58.34,1.91,1.01s.5,1.41.5,2.2c0,.33-.03.66-.08.97-.05.32-.12.64-.21.96-.09.32-.21.69-.36,1.13.48-.71,1.01-1.37,1.58-1.97s1.19-1.08,1.85-1.43c.66-.36,1.36-.53,2.1-.53.99,0,1.68.3,2.06.9.38.6.57,1.25.57,1.97,0,.66-.11,1.36-.33,2.08-.22.73-.43,1.41-.65,2.06-.22.65-.33,1.2-.33,1.66,0,.25.06.49.19.71.13.22.38.33.76.33.69,0,1.35-.32,1.99-.96s1.23-1.42,1.78-2.35c.55-.93,1.01-1.81,1.39-2.66l.65.8c-.41,1.04-.94,2.11-1.59,3.19s-1.41,1.99-2.27,2.71c-.87.73-1.86,1.09-2.98,1.09Z"/>
    <path d="M270.69,104.28c-.2,0-.42-.06-.65-.17-.23-.11-.43-.25-.59-.4-.17-.15-.26-.28-.29-.38.64-1.86,1.18-3.47,1.62-4.83.45-1.36.82-2.65,1.13-3.86s.58-2.47.82-3.78c.24-1.31.48-2.81.73-4.51.24-1.69.52-3.74.82-6.13.05-.31.11-.53.19-.67.08-.14.32-.21.73-.21.79,0,1.36.21,1.72.63.36.42.54.89.54,1.39,0,.25-.04.7-.13,1.34-.09.64-.22,1.39-.4,2.25.48-.74,1.04-1.44,1.66-2.1.62-.66,1.32-1.2,2.08-1.62.76-.42,1.59-.63,2.48-.63,1.25,0,2.28.42,3.09,1.26.81.84,1.22,1.95,1.22,3.32,0,.99-.22,2.04-.67,3.15-.45,1.11-1.08,2.15-1.89,3.13-.82.98-1.8,1.78-2.94,2.41-1.15.62-2.41.94-3.78.94-.82,0-1.46-.1-1.95-.31-.48-.2-.73-.43-.73-.69,0-.18.1-.29.29-.33.19-.04.4-.06.63-.06,1.2-.02,2.29-.28,3.27-.76.98-.48,1.83-1.11,2.54-1.89.71-.78,1.26-1.61,1.64-2.5.38-.89.57-1.77.57-2.64,0-.76-.17-1.43-.52-1.99-.34-.56-.89-.84-1.62-.84-.64,0-1.28.2-1.93.61-.65.41-1.25.92-1.82,1.55s-1.06,1.27-1.49,1.95c-.43.68-.76,1.27-.99,1.78-.48,1.68-.92,3.36-1.32,5.02-.4,1.67-.77,3.22-1.13,4.64-.36,1.43-.72,2.64-1.09,3.63s-.77,1.67-1.2,2.03c-.2.18-.42.27-.65.27Z"/>
    <path d="M290.76,95.37c-.84,0-1.57-.28-2.2-.84-.62-.56-.94-1.4-.94-2.52,0-.89.21-1.86.61-2.9.41-1.04.97-2.08,1.68-3.09s1.53-1.94,2.45-2.77c.92-.83,1.9-1.5,2.94-2.01,1.04-.51,2.09-.76,3.13-.76s2.02.28,2.79.84c.76.56,1.15,1.3,1.15,2.22,0,.69-.24,1.18-.73,1.49-.48.31-1.06.39-1.72.27.05-.23.09-.46.13-.69.04-.23.06-.47.06-.73,0-.51-.1-.97-.31-1.38-.2-.41-.64-.61-1.3-.61-.71,0-1.44.24-2.18.73-.74.48-1.45,1.11-2.12,1.89-.67.78-1.28,1.63-1.81,2.56-.54.93-.96,1.84-1.26,2.73-.31.89-.46,1.69-.46,2.41,0,.82.29,1.22.88,1.22s1.24-.29,1.95-.86,1.43-1.29,2.16-2.16c.73-.87,1.42-1.75,2.08-2.66.66-.9,1.24-1.67,1.72-2.31.08-.13.18-.19.31-.19.1.03.3.08.59.17.29.09.57.22.82.4.25.18.38.41.38.69,0,.25-.11.58-.33.97-.22.4-.47.83-.76,1.3-.29.47-.55.94-.76,1.41-.22.47-.32.92-.32,1.36,0,.33.09.64.27.94.18.29.47.44.88.44.61,0,1.47-.45,2.58-1.36,1.11-.9,2.24-2.44,3.38-4.6l.73.73c-.61,1.38-1.34,2.59-2.2,3.65-.85,1.06-1.75,1.89-2.69,2.48-.94.6-1.9.9-2.87.9-1.04,0-1.82-.33-2.33-.99s-.79-1.38-.84-2.14v-.19c-1.02,1.22-1.96,2.19-2.81,2.9-.85.71-1.76,1.07-2.73,1.07Z"/>
    <path d="M312.65,94.57c-.94,0-1.71-.25-2.29-.75-.59-.5-.88-1.17-.88-2.01,0-.71.18-1.48.54-2.29.36-.82.72-1.62,1.09-2.41.37-.79.55-1.49.55-2.1s-.19-1.08-.57-1.47c-.38-.39-.83-.72-1.34-.97-.56,1.4-1.19,2.76-1.89,4.07-.7,1.31-1.27,2.34-1.7,3.08l-.57-1.11c.36-.66.83-1.61,1.41-2.83.58-1.22,1.15-2.58,1.68-4.09-.25-.25-.38-.6-.38-1.03,0-.66.2-1.29.61-1.87.41-.59.8-.88,1.18-.88.31,0,.53.17.67.52.14.34.21.58.21.71s-.06.36-.17.69c-.12.33-.2.57-.25.73.03.28.25.55.67.82.42.27.9.58,1.43.94.54.36,1.01.8,1.41,1.34s.61,1.21.61,2.03c0,.74-.17,1.49-.5,2.25-.33.76-.66,1.48-.99,2.14-.33.66-.5,1.24-.5,1.72,0,.36.09.59.29.71s.41.17.67.17c.61,0,1.25-.18,1.91-.55s1.31-.85,1.95-1.43c.64-.58,1.2-1.2,1.68-1.85.48-.65.85-1.24,1.11-1.78l.92.69c-.48,1.09-1.18,2.17-2.1,3.23-.92,1.06-1.94,1.92-3.06,2.6-1.12.67-2.25,1.01-3.4,1.01Z"/>
    <path d="M322.93,95.34c-1.12,0-2.03-.33-2.71-.99-.69-.66-1.03-1.67-1.03-3.02,0-1.04.2-2.34.59-3.9.39-1.55.9-3.16,1.51-4.81-.18-.05-.39-.1-.63-.13s-.48-.11-.71-.21v-1.18c.41.05.75.09,1.01.12.27.03.54.05.82.08.54-1.35,1.11-2.66,1.74-3.92.62-1.26,1.25-2.39,1.87-3.38s1.22-1.78,1.78-2.35c.56-.57,1.06-.86,1.49-.86.25,0,.5.1.73.29.23.19.34.46.34.82,0,.51-.26,1.24-.78,2.18-.52.94-1.17,2.04-1.93,3.31-.76,1.26-1.5,2.6-2.22,4.03h1.18c1.12,0,2.13-.02,3.04-.06s1.83-.11,2.77-.21v1.26c-1.4.13-2.69.23-3.86.31s-2.29.13-3.36.15h-.46c-.53,1.25-1,2.53-1.39,3.84-.39,1.31-.59,2.59-.59,3.84,0,1.04.17,1.78.5,2.22.33.43.85.65,1.57.65,1.27,0,2.58-.58,3.92-1.74,1.34-1.16,2.5-2.73,3.5-4.72l.54.38c-.66,1.5-1.48,2.87-2.46,4.09s-2.04,2.18-3.19,2.88c-1.15.7-2.33,1.05-3.55,1.05Z"/>
    <path d="M333.51,94.72c-1.12,0-1.96-.33-2.52-.99-.56-.66-.84-1.46-.84-2.41,0-.59.1-1.32.31-2.22.2-.89.49-1.83.86-2.81.37-.98.8-1.9,1.28-2.77.48-.87,1.01-1.57,1.57-2.12s1.12-.82,1.68-.82c.31,0,.57.1.8.29.23.19.34.47.34.82,0,.33-.2.83-.59,1.49-.39.66-.85,1.43-1.38,2.29-.52.87-.98,1.76-1.38,2.69-.4.93-.59,1.81-.59,2.66s.15,1.36.44,1.62c.29.27.72.4,1.28.4.87,0,1.81-.43,2.83-1.3,1.02-.87,2.08-2.38,3.17-4.55l.57.61c-.89,2.24-2.03,3.99-3.4,5.24-1.38,1.25-2.85,1.87-4.43,1.87ZM338.02,77.49c-.48,0-.92-.12-1.32-.36s-.59-.62-.59-1.13c0-.61.33-1.13.99-1.57.66-.43,1.35-.65,2.06-.65.46,0,.85.1,1.17.31.32.2.48.57.48,1.11s-.29,1.05-.88,1.55c-.59.5-1.22.75-1.91.75Z"/>
    <path d="M342.41,94.72c-.48,0-.97-.12-1.47-.36-.5-.24-.92-.62-1.26-1.13-.34-.51-.52-1.16-.52-1.95,0-.84.2-1.78.61-2.83.41-1.04.96-2.09,1.66-3.13.7-1.04,1.52-2,2.45-2.87.93-.87,1.92-1.57,2.96-2.1,1.04-.54,2.1-.8,3.17-.8.59,0,1.04.1,1.38.29.33.19.5.5.5.94,0,.13-.03.27-.08.44-.05.17-.18.31-.38.44-.1-.15-.28-.26-.54-.32-.25-.06-.52-.1-.8-.1-.84,0-1.64.24-2.41.71-.76.47-1.46,1.08-2.1,1.81-.64.74-1.19,1.54-1.66,2.41-.47.87-.83,1.7-1.09,2.5-.25.8-.38,1.5-.38,2.08,0,.48.1.87.31,1.17.2.29.51.44.92.44.69,0,1.51-.4,2.46-1.2.96-.8,1.94-1.96,2.94-3.48,1.01-1.52,1.92-3.33,2.73-5.45.56-1.45,1.15-2.94,1.76-4.45s1.22-2.97,1.83-4.38c.61-1.4,1.22-2.65,1.81-3.74.6-1.1,1.17-1.97,1.72-2.62.55-.65,1.05-.97,1.51-.97.28,0,.53.11.75.32.22.22.32.49.32.82,0,.43-.21,1.13-.63,2.08-.42.96-.96,2.1-1.61,3.42s-1.35,2.76-2.1,4.3c-.75,1.54-1.45,3.12-2.1,4.74-.65,1.62-1.18,3.21-1.6,4.78s-.63,3.04-.63,4.41c0,.61.06,1.03.17,1.24.12.22.31.32.59.32.56,0,1.18-.22,1.87-.65.69-.43,1.39-1.08,2.1-1.93.71-.85,1.36-1.88,1.95-3.08l.73.61c-.56,1.4-1.27,2.64-2.14,3.71-.87,1.07-1.8,1.9-2.79,2.5-.99.6-1.97.9-2.94.9-1.04,0-1.77-.33-2.18-.99-.41-.66-.61-1.44-.61-2.33,0-.41.03-.82.09-1.24.06-.42.13-.83.21-1.24-.79,1.15-1.62,2.17-2.5,3.08s-1.74,1.61-2.58,2.12c-.84.51-1.64.76-2.41.76Z"/>
    <path d="M361.06,94.8c-1.15,0-1.93-.38-2.35-1.13s-.63-1.57-.63-2.46c0-.81.13-1.65.38-2.5.25-.85.6-1.65,1.05-2.39.45-.74.94-1.33,1.49-1.78.55-.45,1.1-.67,1.66-.67.18,0,.39.03.63.1s.41.16.52.29c-.31.38-.62.85-.94,1.41-.32.56-.61,1.15-.88,1.78-.27.62-.48,1.25-.63,1.89-.15.64-.23,1.22-.23,1.76s.09.93.29,1.26.53.5,1.01.5,1.06-.27,1.74-.82c.67-.55,1.32-1.18,1.93-1.89-.82-.74-1.4-1.55-1.76-2.43s-.53-1.94-.53-3.19c0-.54.13-1.15.4-1.83s.7-1.29,1.3-1.8c.6-.51,1.41-.76,2.43-.76,1.09,0,1.87.31,2.31.92s.67,1.34.67,2.18c0,.94-.25,2-.75,3.17-.5,1.17-1.09,2.28-1.78,3.32.31.15.66.23,1.07.23.38,0,.84-.09,1.38-.27.54-.18,1.06-.48,1.57-.9.51-.42.92-.99,1.22-1.7l.69.5c-.56,1.3-1.31,2.25-2.24,2.85s-1.84.9-2.73.9c-.33,0-.66-.03-.99-.1-.33-.06-.64-.15-.92-.25-.87,1.02-1.86,1.91-2.98,2.67-1.12.76-2.25,1.15-3.4,1.15ZM367.1,88.92c.61-.89,1.13-1.85,1.57-2.87.43-1.02.65-1.96.65-2.83,0-.59-.09-1.01-.27-1.28-.18-.27-.45-.4-.8-.4-.48,0-.98.34-1.49,1.03-.51.69-.76,1.55-.76,2.6,0,.54.1,1.18.29,1.95.19.76.46,1.36.82,1.8Z"/>
    <path d="M377.22,95.53c-1.27,0-2.3-.26-3.08-.78s-1.33-1.18-1.66-1.99c-.33-.8-.5-1.62-.5-2.46,0-.74.1-1.31.31-1.72.21-.41.46-.71.76-.9s.59-.34.86-.44.46-.22.59-.34c.64-.66,1.29-1.43,1.97-2.31.67-.88,1.25-1.85,1.74-2.92v-.38c0-1.02.17-1.74.52-2.16.34-.42.75-.63,1.2-.63.31,0,.53.08.67.23.14.15.22.33.25.53,0,.15-.03.33-.1.54-.06.2-.1.48-.1.84,0,.76.18,1.64.55,2.62.37.98.74,2.02,1.11,3.11.37,1.1.55,2.22.55,3.36,0,.31-.01.59-.04.84-.03.25-.06.5-.12.73.79-.2,1.57-.64,2.33-1.32.76-.67,1.49-1.67,2.18-3l.46.34c-.48,1.45-1.18,2.62-2.1,3.5s-1.99,1.42-3.21,1.62c-.41,1.04-1.08,1.82-2.01,2.33-.93.51-1.98.76-3.15.76ZM376.95,93.84c.51,0,.98-.13,1.41-.38.43-.25.78-.62,1.03-1.11-1.04-.23-1.99-.64-2.83-1.22-.84-.59-1.49-1.18-1.95-1.8-.36.08-.54.42-.54,1.03,0,.84.24,1.63.73,2.37.48.74,1.2,1.11,2.14,1.11ZM379.71,91.21c.05-.18.08-.39.1-.63.01-.24.02-.43.02-.55-.03-1.15-.18-2.28-.46-3.4s-.56-2.27-.84-3.44c-.46.79-.99,1.64-1.6,2.56s-1.18,1.66-1.72,2.22c.41.69,1.01,1.34,1.8,1.95.79.61,1.69,1.04,2.71,1.3Z"/>
    <path d="M387.69,93.96c-.41,0-.76-.1-1.07-.31-.31-.2-.46-.54-.46-.99,0-.48.26-.9.78-1.26.52-.36,1.09-.54,1.7-.54.38,0,.69.09.94.27.24.18.36.48.36.92s-.23.86-.69,1.28c-.46.42-.98.63-1.57.63ZM390.56,82.23c.56-1.45,1.15-2.94,1.76-4.47.61-1.53,1.22-2.99,1.83-4.38.61-1.39,1.21-2.64,1.79-3.74s1.15-1.98,1.7-2.62c.55-.64,1.06-.96,1.55-.96.28,0,.53.11.75.32.22.22.33.49.33.82,0,.36-.21,1.06-.63,2.1-.42,1.04-.97,2.29-1.66,3.75-.69,1.45-1.45,2.99-2.29,4.62-.84,1.63-1.68,3.23-2.52,4.8-.84,1.57-1.63,2.97-2.37,4.22-.74,1.25-1.35,2.22-1.83,2.9l-.23-.08c-.08-.03-.15-.05-.23-.08.02-.66.15-1.41.36-2.25.22-.84.48-1.7.8-2.58s.62-1.67.9-2.39Z"/>
  </g>
</svg>