<?xml version="1.0" encoding="UTF-8"?>
<svg id="Capa_1" xmlns="http://www.w3.org/2000/svg" version="1.1" viewBox="0 0 457.56 177.12">
  <!-- Generator: Adobe Illustrator 29.6.1, SVG Export Plug-In . SVG Version: 2.1.1 Build 9)  -->
  <path d="M135.55,99.97c.09-.26.17-.52.26-.86,4.15-13.4,11.5-18.84,18.67-18.84.86,0,1.21.26,1.21.52,0,0,0,.26-.26.26-.17,0-.26-.09-.52-.09-5.45,0-10.11,11.41-15.04,27.4-5.45,17.63-12.53,26.19-24.72,26.19-6.92,0-11.06-3.11-12.19-6.4-.26-.69.43-.86.69-.26,1.21,3.11,5.27,5.71,10.37,5.71,8.9,0,13.83-9.51,20.83-31.46-3.89,5.62-8.9,10.11-16.08,10.11-12.71,0-21.78-9.16-21.78-25.33,0-22.73,20.66-44.34,43.48-44.34,9.16,0,14.18,3.46,14.18,8.99,0,5.01-4.24,10.37-9.59,14.18-.52.35-1.12,0-.43-.52,1.9-1.56,5.53-7,5.53-12.45,0-5.79-3.72-9.42-10.11-9.42-17.12,0-34.92,27.92-34.92,50.48,0,12.02,5.62,17.55,14.26,17.55,6.74,0,12.27-5.27,16.16-11.41Z"/>
  <path d="M189.93,93.31c-3.2,8.38-3.72,11.32-3.72,13.4s1.12,3.63,3.29,3.63c3.63,0,9.94-6.31,15.99-16.42.26-.43.78.09.52.52-5.79,9.85-12.27,17.46-18.24,17.46-4.75,0-7.17-2.85-6.92-7.95.09-1.9.52-3.89.52-3.89l-.26-.17c-3.89,6.31-9.6,12.27-14.61,12.27s-9.51-3.28-9.51-11.41c0-13.83,14.69-26.8,25.41-26.8,4.41,0,6.22,2.77,5.96,6.74h.17c1.99-3.98,6.92-5.88,9.34-5.88.52,0,.69.17.69.43s-.09.35-.43.69c-1.47,1.38-3.8,5.79-8.21,17.38ZM183.02,75.08c-7.52,0-19.28,15.04-19.28,28.78,0,5.62,1.47,7.17,3.89,7.17,2.85,0,9.59-5.19,13.57-13.05,4.84-9.25,6.4-15.65,6.4-18.24,0-3.03-1.56-4.67-4.58-4.67Z"/>
  <path d="M237.13,46.46c.69,0,.86.17.86.43,0,.17-.17.35-.61.35-6.74.26-11.24,5.71-15.82,18.24l-10.55,28.96c-2.25,6.22-2.94,9.51-2.94,11.67,0,2.85,1.04,4.06,3.29,4.06,3.37,0,9.08-6.22,15.13-16.25.26-.43.78.09.52.52-5.79,9.85-11.67,17.46-17.81,17.46-4.06,0-6.74-2.51-6.74-7.52,0-2.25.86-5.96,2.77-11.32l8.56-24.38c6.14-17.46,17.63-22.22,23.34-22.22Z"/>
  <path d="M237.3,112.16c-6.74,0-13.57-3.37-13.57-12.45,0-12.53,13.05-25.76,23.25-25.76,4.15,0,7.61,1.99,7.61,6.4,0,5.27-9.68,14.44-22.82,14.44-.6,2.51-.95,5.01-.95,7.26,0,6.74,2.77,9.16,7.09,9.16,6.57,0,17.03-7.35,22.99-17.29.26-.43.78.09.52.52-5.71,9.85-15.91,17.72-24.12,17.72ZM231.94,94.09c12.62,0,18.24-11.06,18.24-15.39,0-2.94-1.3-4.06-3.72-4.06-6.05,0-12.1,9.94-14.52,19.45Z"/>
  <path d="M263.67,77.76c-.26,0-.43-.09-.43-.35s.17-.35.52-.43c3.54-.86,6.05-2.25,7.26-2.25s1.9.78,1.9,2.25c0,1.81-.78,3.72-1.73,6.74l.17.09c4.41-6.66,9.42-9.85,13.31-9.85,3.11,0,5.53,1.64,5.53,5.53,0,4.93-6.14,9.16-7.52,9.16-.26,0-.35-.09-.35-.26,0-.69,2.59-3.63,2.59-8.73,0-2.68-.95-3.98-2.59-3.98-2.07,0-6.14,2.16-10.46,8.56-2.33,3.46-4.41,8.73-9.08,21.52-1.3,3.46-3.11,5.45-6.92,5.45-.78,0-1.12-.26-1.12-.69.09-.52.43-.86,1.47-3.63l6.92-19.28c1.9-5.36,2.68-7.35,2.68-8.21,0-1.21-.69-1.64-2.16-1.64Z"/>
  <path d="M296.09,111.9c-4.06,0-6.4-2.25-6.4-6.14,0-2.94,1.64-6.83,3.37-11.67l4.75-13.4c1.3-3.54,4.15-5.62,8.13-5.62.6,0,.86.17.86.52,0,.6-1.82,2.42-3.46,7.09l-6.31,17.72c-1.04,2.94-1.64,5.01-1.64,6.22,0,2.25,1.21,3.46,3.46,3.46,3.2,0,9.85-6.14,15.82-16.16.26-.43.78.09.52.52-5.79,9.94-12.79,17.46-19.1,17.46ZM310.52,57.7c1.64,0,3.2,1.9,3.2,3.98s-3.46,4.84-5.62,4.84c-1.56,0-3.2-1.9-3.2-3.98s3.46-4.84,5.62-4.84Z"/>
  <path d="M344.41,93.31c-3.2,8.38-3.72,11.32-3.72,13.4s1.12,3.63,3.29,3.63c3.63,0,9.94-6.31,15.99-16.42.26-.43.78.09.52.52-5.79,9.85-12.27,17.46-18.24,17.46-4.75,0-7.17-2.85-6.92-7.95.09-1.9.52-3.89.52-3.89l-.26-.17c-3.89,6.31-9.59,12.27-14.61,12.27s-9.51-3.28-9.51-11.41c0-13.83,14.7-26.8,25.41-26.8,4.41,0,6.22,2.77,5.96,6.74h.17c1.99-3.98,6.92-5.88,9.34-5.88.52,0,.69.17.69.43s-.09.35-.43.69c-1.47,1.38-3.8,5.79-8.21,17.38ZM337.49,75.08c-7.52,0-19.28,15.04-19.28,28.78,0,5.62,1.47,7.17,3.89,7.17,2.85,0,9.6-5.19,13.57-13.05,4.84-9.25,6.4-15.65,6.4-18.24,0-3.03-1.56-4.67-4.58-4.67Z"/>
</svg>