<?xml version="1.0" encoding="UTF-8"?>
<svg id="Capa_1" xmlns="http://www.w3.org/2000/svg" version="1.1" viewBox="0 0 108.33 103.57">
  <!-- Generator: Adobe Illustrator 29.6.1, SVG Export Plug-In . SVG Version: 2.1.1 Build 9)  -->
  <path d="M15.85,89.81c1.64-5.91,3.1-11.4,4.72-16.84.53-1.77.38-3.18-.45-4.87-11.44-23.05,3.74-50.91,29.36-54.05,23.56-2.88,43.49,14.89,42.99,38.32-.41,19.2-16.71,35.76-35.99,36.62-6.58.29-12.83-.86-18.85-3.56-1.05-.47-2.48-.54-3.61-.27-5.91,1.41-11.77,2.99-18.17,4.64ZM25.07,80.87c3.76-.97,6.93-1.9,10.15-2.56,1.05-.22,2.4-.06,3.35.43,4.82,2.52,9.88,3.89,15.33,3.99,19.57.34,35.34-17.83,31.61-36.9-2.58-13.18-10.68-21.83-23.77-24.83-13.43-3.07-24.85,1.25-32.97,12.34-7.94,10.84-8.15,22.53-1.67,34.35.57,1.03.72,2.55.48,3.72-.63,3.05-1.58,6.03-2.51,9.46Z"/>
  <path d="M37.64,36.19c2.58-3.48,6.05-2.79,7.86,1.05.71,1.5.87,2.01,1.57,3.72,1.04,2.58.81,4.32-1.06,5.99-1.36,1.21-1.23,2.29-.29,3.68,2.93,4.35,6.72,7.61,11.53,9.74,1.46.65,2.42.5,3.49-.78,3.34-3.99,3.39-3.95,8.1-1.73.54.26,1.08.52,1.62.78,3.62,1.74,4.17,4.99,1.22,7.86-3.01,2.93-6.65,3.6-10.64,2.59-10.17-2.58-17.45-8.98-23.07-17.54-1.71-2.61-3-5.37-2.89-8.6.33-2.99,1.15-4.87,2.56-6.77Z"/>
</svg>